<svg xmlns="http://www.w3.org/2000/svg" viewBox="84.4 -778.6 2454.1 849.1" fill="none" role="img" aria-label="1000"><path d="M290.0 0V-682L156.0 -568L143.0 -585L290.0 -708H312.0V0ZM940.0 12Q872.0 12 829.0 -22.5Q786.0 -57 762.0 -110.0Q738.0 -163 729.0 -228.0Q720.0 -293 720.0 -354Q720.0 -415 729.0 -480.0Q738.0 -545 762.0 -598.0Q786.0 -651 829.0 -685.5Q872.0 -720 940.0 -720Q1008.0 -720 1051.0 -685.5Q1094.0 -651 1118.0 -598.0Q1142.0 -545 1151.0 -480.0Q1160.0 -415 1160.0 -354Q1160.0 -293 1151.0 -228.0Q1142.0 -163 1118.0 -110.0Q1094.0 -57 1051.0 -22.5Q1008.0 12 940.0 12ZM940.0 -700Q895.0 -700 862.5 -681.5Q830.0 -663 808.0 -633.5Q786.0 -604 773.0 -566.5Q760.0 -529 753.0 -490.5Q746.0 -452 744.0 -416.0Q742.0 -380 742.0 -354Q742.0 -327 744.0 -291.5Q746.0 -256 753.0 -217.5Q760.0 -179 773.0 -141.5Q786.0 -104 808.0 -74.5Q830.0 -45 862.5 -26.5Q895.0 -8 940.0 -8Q985.0 -8 1017.5 -26.5Q1050.0 -45 1072.0 -74.5Q1094.0 -104 1107.0 -141.5Q1120.0 -179 1127.0 -217.5Q1134.0 -256 1136.0 -291.5Q1138.0 -327 1138.0 -354Q1138.0 -380 1136.0 -416.0Q1134.0 -452 1127.0 -490.5Q1120.0 -529 1107.0 -566.5Q1094.0 -604 1072.0 -633.5Q1050.0 -663 1017.5 -681.5Q985.0 -700 940.0 -700ZM1600.0 12Q1532.0 12 1489.0 -22.5Q1446.0 -57 1422.0 -110.0Q1398.0 -163 1389.0 -228.0Q1380.0 -293 1380.0 -354Q1380.0 -415 1389.0 -480.0Q1398.0 -545 1422.0 -598.0Q1446.0 -651 1489.0 -685.5Q1532.0 -720 1600.0 -720Q1668.0 -720 1711.0 -685.5Q1754.0 -651 1778.0 -598.0Q1802.0 -545 1811.0 -480.0Q1820.0 -415 1820.0 -354Q1820.0 -293 1811.0 -228.0Q1802.0 -163 1778.0 -110.0Q1754.0 -57 1711.0 -22.5Q1668.0 12 1600.0 12ZM1600.0 -700Q1555.0 -700 1522.5 -681.5Q1490.0 -663 1468.0 -633.5Q1446.0 -604 1433.0 -566.5Q1420.0 -529 1413.0 -490.5Q1406.0 -452 1404.0 -416.0Q1402.0 -380 1402.0 -354Q1402.0 -327 1404.0 -291.5Q1406.0 -256 1413.0 -217.5Q1420.0 -179 1433.0 -141.5Q1446.0 -104 1468.0 -74.5Q1490.0 -45 1522.5 -26.5Q1555.0 -8 1600.0 -8Q1645.0 -8 1677.5 -26.5Q1710.0 -45 1732.0 -74.5Q1754.0 -104 1767.0 -141.5Q1780.0 -179 1787.0 -217.5Q1794.0 -256 1796.0 -291.5Q1798.0 -327 1798.0 -354Q1798.0 -380 1796.0 -416.0Q1794.0 -452 1787.0 -490.5Q1780.0 -529 1767.0 -566.5Q1754.0 -604 1732.0 -633.5Q1710.0 -663 1677.5 -681.5Q1645.0 -700 1600.0 -700ZM2260.0 12Q2192.0 12 2149.0 -22.5Q2106.0 -57 2082.0 -110.0Q2058.0 -163 2049.0 -228.0Q2040.0 -293 2040.0 -354Q2040.0 -415 2049.0 -480.0Q2058.0 -545 2082.0 -598.0Q2106.0 -651 2149.0 -685.5Q2192.0 -720 2260.0 -720Q2328.0 -720 2371.0 -685.5Q2414.0 -651 2438.0 -598.0Q2462.0 -545 2471.0 -480.0Q2480.0 -415 2480.0 -354Q2480.0 -293 2471.0 -228.0Q2462.0 -163 2438.0 -110.0Q2414.0 -57 2371.0 -22.5Q2328.0 12 2260.0 12ZM2260.0 -700Q2215.0 -700 2182.5 -681.5Q2150.0 -663 2128.0 -633.5Q2106.0 -604 2093.0 -566.5Q2080.0 -529 2073.0 -490.5Q2066.0 -452 2064.0 -416.0Q2062.0 -380 2062.0 -354Q2062.0 -327 2064.0 -291.5Q2066.0 -256 2073.0 -217.5Q2080.0 -179 2093.0 -141.5Q2106.0 -104 2128.0 -74.5Q2150.0 -45 2182.5 -26.5Q2215.0 -8 2260.0 -8Q2305.0 -8 2337.5 -26.5Q2370.0 -45 2392.0 -74.5Q2414.0 -104 2427.0 -141.5Q2440.0 -179 2447.0 -217.5Q2454.0 -256 2456.0 -291.5Q2458.0 -327 2458.0 -354Q2458.0 -380 2456.0 -416.0Q2454.0 -452 2447.0 -490.5Q2440.0 -529 2427.0 -566.5Q2414.0 -604 2392.0 -633.5Q2370.0 -663 2337.5 -681.5Q2305.0 -700 2260.0 -700Z" fill="#0a1722"/></svg>
