<svg xmlns="http://www.w3.org/2000/svg" viewBox="182.9 -1453.1 3943.2 1596.2" fill="none" role="img" aria-label="1000"><path d="M549.0 -1343H593.0V-281Q593.0 -150 596.5 -116.0Q600.0 -82 625.0 -64.0Q650.0 -46 714.0 -46H753.0V0H303.0V-46H336.0Q408.0 -46 429.5 -66.5Q451.0 -87 454.5 -115.5Q458.0 -144 458.0 -281V-993Q458.0 -1128 455.0 -1156.5Q452.0 -1185 429.5 -1206.5Q407.0 -1228 336.0 -1228H293.0V-1274Q466.0 -1277 549.0 -1343ZM1110.0 -655Q1110.0 -968 1228.5 -1155.5Q1347.0 -1343 1539.0 -1343Q1731.0 -1343 1849.5 -1154.5Q1968.0 -966 1968.0 -655Q1968.0 -346 1850.0 -156.5Q1732.0 33 1539.0 33Q1347.0 33 1228.5 -155.5Q1110.0 -344 1110.0 -655ZM1276.0 -655Q1276.0 -240 1345.5 -127.5Q1415.0 -15 1539.0 -15Q1685.0 -15 1743.0 -149.5Q1801.0 -284 1801.0 -655Q1801.0 -1071 1731.5 -1183.0Q1662.0 -1295 1539.0 -1295Q1416.0 -1295 1346.0 -1183.5Q1276.0 -1072 1276.0 -655ZM2134.0 -655Q2134.0 -968 2252.5 -1155.5Q2371.0 -1343 2563.0 -1343Q2755.0 -1343 2873.5 -1154.5Q2992.0 -966 2992.0 -655Q2992.0 -346 2874.0 -156.5Q2756.0 33 2563.0 33Q2371.0 33 2252.5 -155.5Q2134.0 -344 2134.0 -655ZM2300.0 -655Q2300.0 -240 2369.5 -127.5Q2439.0 -15 2563.0 -15Q2709.0 -15 2767.0 -149.5Q2825.0 -284 2825.0 -655Q2825.0 -1071 2755.5 -1183.0Q2686.0 -1295 2563.0 -1295Q2440.0 -1295 2370.0 -1183.5Q2300.0 -1072 2300.0 -655ZM3158.0 -655Q3158.0 -968 3276.5 -1155.5Q3395.0 -1343 3587.0 -1343Q3779.0 -1343 3897.5 -1154.5Q4016.0 -966 4016.0 -655Q4016.0 -346 3898.0 -156.5Q3780.0 33 3587.0 33Q3395.0 33 3276.5 -155.5Q3158.0 -344 3158.0 -655ZM3324.0 -655Q3324.0 -240 3393.5 -127.5Q3463.0 -15 3587.0 -15Q3733.0 -15 3791.0 -149.5Q3849.0 -284 3849.0 -655Q3849.0 -1071 3779.5 -1183.0Q3710.0 -1295 3587.0 -1295Q3464.0 -1295 3394.0 -1183.5Q3324.0 -1072 3324.0 -655Z" fill="#0a1722"/></svg>
