<svg xmlns="http://www.w3.org/2000/svg" viewBox="58.8 -728.9 2324.1 795.8" fill="none" role="img" aria-label="1000"><path d="M467.87564434701784 -7.0Q465.7320508075689 1.0 439.7320508075689 1.0H415.7320508075689Q402.2679491924311 -1.0 306.0 0.0L180.73205080756887 1.0Q168.73205080756887 1.0 152.46410161513776 2.0Q138.46410161513776 2.0 136.46410161513776 2.0Q111.46410161513775 2.0 113.87564434701785 -7.0Q115.48333950160459 -13.0 120.75128869403571 -14.0Q126.01923788646684 -15.0 160.01923788646684 -15.0Q204.28718707889797 -16.0 216.96667900320918 -26.0Q225.37822173508928 -35.0 230.2013071988495 -53.0L329.87840678322715 -425.0Q361.76436068253076 -544.0 362.443852606842 -554.0Q363.7310396857399 -570.0 338.7310396857399 -570.0L287.4630904933088 -569.0Q261.1951413008777 -568.0 263.6066840327578 -577.0Q265.21437918734455 -583.0 299.0182267646379 -586.0Q385.89387111165576 -593.0 455.27209284674507 -628.0Q458.8079912316073 -630.0 497.43492427266085 -651.0L541.5977556985767 -674.0L541.5785178121098 -659.0Q540.7746702348165 -656.0 536.2913307332119 -643.0L406.3359724041174 -158.0Q381.9525958928852 -67.0 380.7372055837117 -55.0Q371.01923788646684 -15.0 409.28718707889794 -16.0Q470.8230854637602 -18.0 467.87564434701784 -7.0ZM1186.2796399628214 -322.0Q1147.1590578678774 -176.0 1050.971833779352 -82.0Q954.7846096908265 12.0 845.7846096908265 12.0Q736.7846096908265 12.0 686.3115797415077 -87.0Q635.8385497921888 -186.0 673.3514367325461 -326.0Q723.4579357171659 -513.0 867.5208041527094 -614.0Q942.7221113515589 -667.0 1026.7221113515589 -667.0Q1102.7221113515589 -667.0 1144.7361944618829 -626.0Q1188.9464299949134 -582.0 1200.4745962155612 -500.0Q1212.0027624362092 -418.0 1186.2796399628214 -322.0ZM1025.8347762341505 -339.0Q1082.3720558371174 -550.0 1068.2528549602782 -613.0Q1059.8990258877986 -649.0 1019.8990258877986 -649.0Q968.8990258877986 -649.0 929.14258241762 -579.0Q885.5104946004236 -502.0 845.5860649281863 -353.0Q782.0821063220103 -116.0 806.5218152745383 -43.0Q818.6076951545867 -6.0 851.6076951545867 -6.0Q901.6076951545867 -6.0 937.6320878171964 -77.0Q975.7282772495307 -152.0 1025.8347762341505 -339.0ZM1748.2796399628214 -322.0Q1709.1590578678774 -176.0 1612.971833779352 -82.0Q1516.7846096908265 12.0 1407.7846096908265 12.0Q1298.7846096908265 12.0 1248.3115797415076 -87.0Q1197.8385497921888 -186.0 1235.351436732546 -326.0Q1285.457935717166 -513.0 1429.5208041527094 -614.0Q1504.7221113515589 -667.0 1588.7221113515589 -667.0Q1664.7221113515589 -667.0 1706.7361944618829 -626.0Q1750.9464299949134 -582.0 1762.4745962155612 -500.0Q1774.0027624362092 -418.0 1748.2796399628214 -322.0ZM1587.8347762341505 -339.0Q1644.3720558371174 -550.0 1630.2528549602782 -613.0Q1621.8990258877986 -649.0 1581.8990258877986 -649.0Q1530.8990258877986 -649.0 1491.14258241762 -579.0Q1447.5104946004235 -502.0 1407.5860649281863 -353.0Q1344.0821063220103 -116.0 1368.5218152745383 -43.0Q1380.6076951545867 -6.0 1413.6076951545867 -6.0Q1463.6076951545867 -6.0 1499.6320878171964 -77.0Q1537.7282772495307 -152.0 1587.8347762341505 -339.0ZM2310.2796399628214 -322.0Q2271.1590578678774 -176.0 2174.971833779352 -82.0Q2078.7846096908265 12.0 1969.7846096908265 12.0Q1860.7846096908265 12.0 1810.3115797415076 -87.0Q1759.8385497921888 -186.0 1797.351436732546 -326.0Q1847.457935717166 -513.0 1991.5208041527094 -614.0Q2066.722111351559 -667.0 2150.722111351559 -667.0Q2226.722111351559 -667.0 2268.736194461883 -626.0Q2312.946429994913 -582.0 2324.474596215561 -500.0Q2336.002762436209 -418.0 2310.2796399628214 -322.0ZM2149.8347762341505 -339.0Q2206.3720558371174 -550.0 2192.2528549602785 -613.0Q2183.8990258877984 -649.0 2143.8990258877984 -649.0Q2092.8990258877984 -649.0 2053.14258241762 -579.0Q2009.5104946004235 -502.0 1969.5860649281863 -353.0Q1906.0821063220103 -116.0 1930.5218152745383 -43.0Q1942.6076951545867 -6.0 1975.6076951545867 -6.0Q2025.6076951545867 -6.0 2061.6320878171964 -77.0Q2099.7282772495305 -152.0 2149.8347762341505 -339.0Z" fill="#0a1722"/></svg>
