<svg xmlns="http://www.w3.org/2000/svg" viewBox="62.1 -769.9 2092.8 839.8" fill="none" role="img" aria-label="1000"><path d="M423.0 -7Q423.0 1 401.0 1H389.0Q389.0 1 351.0 1Q313.0 0 274.0 0Q205.0 0 186.0 1.0Q167.0 2 156.0 2Q132.0 2 132.0 -7Q132.0 -16 146.0 -16Q168.0 -16 193.0 -17Q224.0 -18 226.5 -32.5Q229.0 -47 229.0 -95V-565Q229.0 -597 227.0 -603.0Q225.0 -609 213.0 -609Q208.0 -609 148.0 -604Q136.0 -603 132.0 -603Q120.0 -603 120.0 -610Q120.0 -618 132.0 -619Q179.0 -624 227.0 -647.5Q275.0 -671 304.0 -703Q315.0 -712 319.0 -712Q327.0 -712 327.0 -702V-683Q326.0 -675 326.0 -665V-67Q326.0 -31 329.5 -25.0Q333.0 -19 354.0 -18L377.0 -17L394.0 -16H409.0Q423.0 -16 423.0 -7ZM1031.0 -335Q1031.0 -246 1004.5 -167.0Q978.0 -88 932.0 -40Q883.0 12 807.0 12Q703.0 12 635.5 -90.0Q568.0 -192 568.0 -351Q568.0 -535 663.0 -641Q720.0 -705 803.0 -705Q901.0 -705 959.0 -616Q1031.0 -506 1031.0 -335ZM923.0 -371Q923.0 -520 890.0 -617Q865.0 -691 802.0 -691Q676.0 -691 676.0 -356Q676.0 -5 809.0 -5Q871.0 -5 898.0 -107Q923.0 -200 923.0 -371ZM1564.0 -335Q1564.0 -246 1537.5 -167.0Q1511.0 -88 1465.0 -40Q1416.0 12 1340.0 12Q1236.0 12 1168.5 -90.0Q1101.0 -192 1101.0 -351Q1101.0 -535 1196.0 -641Q1253.0 -705 1336.0 -705Q1434.0 -705 1492.0 -616Q1564.0 -506 1564.0 -335ZM1456.0 -371Q1456.0 -520 1423.0 -617Q1398.0 -691 1335.0 -691Q1209.0 -691 1209.0 -356Q1209.0 -5 1342.0 -5Q1404.0 -5 1431.0 -107Q1456.0 -200 1456.0 -371ZM2097.0 -335Q2097.0 -246 2070.5 -167.0Q2044.0 -88 1998.0 -40Q1949.0 12 1873.0 12Q1769.0 12 1701.5 -90.0Q1634.0 -192 1634.0 -351Q1634.0 -535 1729.0 -641Q1786.0 -705 1869.0 -705Q1967.0 -705 2025.0 -616Q2097.0 -506 2097.0 -335ZM1989.0 -371Q1989.0 -520 1956.0 -617Q1931.0 -691 1868.0 -691Q1742.0 -691 1742.0 -356Q1742.0 -5 1875.0 -5Q1937.0 -5 1964.0 -107Q1989.0 -200 1989.0 -371Z" fill="#0a1722"/></svg>
