<svg xmlns="http://www.w3.org/2000/svg" viewBox="54.1 -728.9 2224.8 795.8" fill="none" role="img" aria-label="1000"><path d="M466.0 -7Q466.0 1 440.0 1H416.0Q402.0 -1 306.0 0L181.0 1Q169.0 1 153.0 2Q139.0 2 137.0 2Q112.0 2 112.0 -7Q112.0 -13 117.0 -14.0Q122.0 -15 156.0 -15Q200.0 -16 210.0 -26Q216.0 -35 216.0 -53V-425Q216.0 -544 214.0 -554Q211.0 -570 186.0 -570L135.0 -569Q109.0 -568 109.0 -577Q109.0 -583 142.0 -586Q227.0 -593 287.0 -628Q290.0 -630 323.0 -651L361.0 -674L365.0 -659Q365.0 -656 364.0 -643V-158Q364.0 -67 366.0 -55Q367.0 -15 405.0 -16Q466.0 -18 466.0 -7ZM1100.0 -322Q1100.0 -176 1029.0 -82.0Q958.0 12 849.0 12Q740.0 12 663.0 -87.0Q586.0 -186 586.0 -326Q586.0 -513 703.0 -614Q764.0 -667 848.0 -667Q924.0 -667 977.0 -626Q1033.0 -582 1066.5 -500.0Q1100.0 -418 1100.0 -322ZM935.0 -339Q935.0 -550 904.0 -613Q886.0 -649 846.0 -649Q795.0 -649 774.0 -579Q751.0 -502 751.0 -353Q751.0 -116 795.0 -43Q817.0 -6 850.0 -6Q900.0 -6 917.0 -77Q935.0 -152 935.0 -339ZM1662.0 -322Q1662.0 -176 1591.0 -82.0Q1520.0 12 1411.0 12Q1302.0 12 1225.0 -87.0Q1148.0 -186 1148.0 -326Q1148.0 -513 1265.0 -614Q1326.0 -667 1410.0 -667Q1486.0 -667 1539.0 -626Q1595.0 -582 1628.5 -500.0Q1662.0 -418 1662.0 -322ZM1497.0 -339Q1497.0 -550 1466.0 -613Q1448.0 -649 1408.0 -649Q1357.0 -649 1336.0 -579Q1313.0 -502 1313.0 -353Q1313.0 -116 1357.0 -43Q1379.0 -6 1412.0 -6Q1462.0 -6 1479.0 -77Q1497.0 -152 1497.0 -339ZM2224.0 -322Q2224.0 -176 2153.0 -82.0Q2082.0 12 1973.0 12Q1864.0 12 1787.0 -87.0Q1710.0 -186 1710.0 -326Q1710.0 -513 1827.0 -614Q1888.0 -667 1972.0 -667Q2048.0 -667 2101.0 -626Q2157.0 -582 2190.5 -500.0Q2224.0 -418 2224.0 -322ZM2059.0 -339Q2059.0 -550 2028.0 -613Q2010.0 -649 1970.0 -649Q1919.0 -649 1898.0 -579Q1875.0 -502 1875.0 -353Q1875.0 -116 1919.0 -43Q1941.0 -6 1974.0 -6Q2024.0 -6 2041.0 -77Q2059.0 -152 2059.0 -339Z" fill="#0a1722"/></svg>
