<svg xmlns="http://www.w3.org/2000/svg" viewBox="58.3 -728.9 2285.4 795.8" fill="none" role="img" aria-label="1000"><path d="M467.23428886495924 -7.0Q465.82367301929156 1.0 439.82367301929156 1.0H415.82367301929156Q402.17632698070844 -1.0 306.0 0.0L180.82367301929153 1.0Q168.82367301929153 1.0 152.64734603858307 2.0Q138.64734603858307 2.0 136.64734603858307 2.0Q111.64734603858307 2.0 113.23428886495925 -7.0Q114.29225074921004 -13.0 119.46857772991851 -14.0Q124.64490471062697 -15.0 158.64490471062697 -15.0Q202.82123169133544 -16.0 214.58450149842008 -26.0Q222.17144432479628 -35.0 225.34532997754866 -53.0L290.93896680109765 -425.0Q311.92187750540495 -544.0 311.68514731248956 -554.0Q311.50637900382503 -570.0 286.50637900382503 -570.0L235.33005202311656 -569.0Q209.1537250424081 -568.0 210.74066786878427 -577.0Q211.79862975303507 -583.0 245.32761069516047 -586.0Q331.56189956011974 -593.0 397.733343884916 -628.0Q401.08599784633293 -630.0 437.7888644412107 -651.0L479.84438499750536 -674.0L481.1994802868784 -659.0Q480.670499344753 -656.0 477.37824859554297 -643.0L391.8596629519375 -158.0Q375.81390770746714 -67.0 375.6979839389656 -55.0Q369.644904710627 -15.0 407.8212316913354 -16.0Q469.17388565275235 -18.0 467.23428886495924 -7.0ZM1156.7772877881257 -322.0Q1131.0335486046897 -176.0 1043.458812418094 -82.0Q955.8840762314984 12.0 846.8840762314984 12.0Q737.8840762314984 12.0 678.3404473216365 -87.0Q618.7968184117744 -186.0 643.4825957109596 -326.0Q676.4557411034425 -513.0 811.2647661549975 -614.0Q881.6100961325461 -667.0 965.6100961325461 -667.0Q1041.610096132546 -667.0 1087.3806899234992 -626.0Q1135.6223027723267 -582.0 1154.6634903542326 -500.0Q1173.7046779361383 -418.0 1156.7772877881257 -322.0ZM994.7748464601696 -339.0Q1031.9798393896558 -550.0 1012.0884391742891 -613.0Q1000.4362104797938 -649.0 960.4362104797938 -649.0Q909.4362104797938 -649.0 876.0933218302011 -579.0Q839.5161443156494 -502.0 813.2434241900881 -353.0Q771.4539297621819 -116.0 802.582060170464 -43.0Q818.0579618842507 -6.0 851.0579618842507 -6.0Q901.0579618842507 -6.0 930.5771775145517 -77.0Q961.8017010676867 -152.0 994.7748464601696 -339.0ZM1718.7772877881257 -322.0Q1693.0335486046897 -176.0 1605.458812418094 -82.0Q1517.8840762314985 12.0 1408.8840762314985 12.0Q1299.8840762314985 12.0 1240.3404473216365 -87.0Q1180.7968184117744 -186.0 1205.4825957109597 -326.0Q1238.4557411034425 -513.0 1373.2647661549975 -614.0Q1443.610096132546 -667.0 1527.610096132546 -667.0Q1603.610096132546 -667.0 1649.3806899234992 -626.0Q1697.6223027723267 -582.0 1716.6634903542326 -500.0Q1735.7046779361383 -418.0 1718.7772877881257 -322.0ZM1556.7748464601696 -339.0Q1593.9798393896558 -550.0 1574.088439174289 -613.0Q1562.4362104797938 -649.0 1522.4362104797938 -649.0Q1471.4362104797938 -649.0 1438.0933218302011 -579.0Q1401.5161443156494 -502.0 1375.2434241900883 -353.0Q1333.4539297621818 -116.0 1364.582060170464 -43.0Q1380.0579618842507 -6.0 1413.0579618842507 -6.0Q1463.0579618842507 -6.0 1492.5771775145517 -77.0Q1523.8017010676867 -152.0 1556.7748464601696 -339.0ZM2280.7772877881257 -322.0Q2255.0335486046897 -176.0 2167.458812418094 -82.0Q2079.8840762314985 12.0 1970.8840762314985 12.0Q1861.8840762314985 12.0 1802.3404473216365 -87.0Q1742.7968184117744 -186.0 1767.4825957109597 -326.0Q1800.4557411034425 -513.0 1935.2647661549975 -614.0Q2005.610096132546 -667.0 2089.610096132546 -667.0Q2165.610096132546 -667.0 2211.380689923499 -626.0Q2259.6223027723267 -582.0 2278.6634903542326 -500.0Q2297.704677936138 -418.0 2280.7772877881257 -322.0ZM2118.7748464601696 -339.0Q2155.979839389656 -550.0 2136.088439174289 -613.0Q2124.4362104797938 -649.0 2084.4362104797938 -649.0Q2033.4362104797938 -649.0 2000.0933218302011 -579.0Q1963.5161443156494 -502.0 1937.2434241900883 -353.0Q1895.4539297621818 -116.0 1926.582060170464 -43.0Q1942.0579618842507 -6.0 1975.0579618842507 -6.0Q2025.0579618842507 -6.0 2054.5771775145517 -77.0Q2085.8017010676867 -152.0 2118.7748464601696 -339.0Z" fill="#0a1722"/></svg>
