<svg xmlns="http://www.w3.org/2000/svg" viewBox="62.1 -769.9 2452.8 839.8" fill="none" role="img" aria-label="1000"><path d="M423.0 -7Q423.0 1 401.0 1H389.0Q389.0 1 351.0 1Q313.0 0 274.0 0Q205.0 0 186.0 1.0Q167.0 2 156.0 2Q132.0 2 132.0 -7Q132.0 -16 146.0 -16Q168.0 -16 193.0 -17Q224.0 -18 226.5 -32.5Q229.0 -47 229.0 -95V-565Q229.0 -597 227.0 -603.0Q225.0 -609 213.0 -609Q208.0 -609 148.0 -604Q136.0 -603 132.0 -603Q120.0 -603 120.0 -610Q120.0 -618 132.0 -619Q179.0 -624 227.0 -647.5Q275.0 -671 304.0 -703Q315.0 -712 319.0 -712Q327.0 -712 327.0 -702V-683Q326.0 -675 326.0 -665V-67Q326.0 -31 329.5 -25.0Q333.0 -19 354.0 -18L377.0 -17L394.0 -16H409.0Q423.0 -16 423.0 -7ZM1151.0 -335Q1151.0 -246 1124.5 -167.0Q1098.0 -88 1052.0 -40Q1003.0 12 927.0 12Q823.0 12 755.5 -90.0Q688.0 -192 688.0 -351Q688.0 -535 783.0 -641Q840.0 -705 923.0 -705Q1021.0 -705 1079.0 -616Q1151.0 -506 1151.0 -335ZM1043.0 -371Q1043.0 -520 1010.0 -617Q985.0 -691 922.0 -691Q796.0 -691 796.0 -356Q796.0 -5 929.0 -5Q991.0 -5 1018.0 -107Q1043.0 -200 1043.0 -371ZM1804.0 -335Q1804.0 -246 1777.5 -167.0Q1751.0 -88 1705.0 -40Q1656.0 12 1580.0 12Q1476.0 12 1408.5 -90.0Q1341.0 -192 1341.0 -351Q1341.0 -535 1436.0 -641Q1493.0 -705 1576.0 -705Q1674.0 -705 1732.0 -616Q1804.0 -506 1804.0 -335ZM1696.0 -371Q1696.0 -520 1663.0 -617Q1638.0 -691 1575.0 -691Q1449.0 -691 1449.0 -356Q1449.0 -5 1582.0 -5Q1644.0 -5 1671.0 -107Q1696.0 -200 1696.0 -371ZM2457.0 -335Q2457.0 -246 2430.5 -167.0Q2404.0 -88 2358.0 -40Q2309.0 12 2233.0 12Q2129.0 12 2061.5 -90.0Q1994.0 -192 1994.0 -351Q1994.0 -535 2089.0 -641Q2146.0 -705 2229.0 -705Q2327.0 -705 2385.0 -616Q2457.0 -506 2457.0 -335ZM2349.0 -371Q2349.0 -520 2316.0 -617Q2291.0 -691 2228.0 -691Q2102.0 -691 2102.0 -356Q2102.0 -5 2235.0 -5Q2297.0 -5 2324.0 -107Q2349.0 -200 2349.0 -371Z" fill="#0a1722"/></svg>
