<svg xmlns="http://www.w3.org/2000/svg" viewBox="-29.9 -766.9 2231.8 839.8" fill="none" role="img" aria-label="1000"><path d="M496.0 -702Q496.0 -696 481.0 -664Q475.0 -650 469.0 -635L267.0 -86Q249.0 -37 249.0 -33Q249.0 -13 282.0 -14L353.0 -15Q367.0 -15 367.0 -6Q367.0 1 354.0 1H344.0Q337.0 0 305.0 0H129.0Q84.0 0 57.0 1Q49.0 2 40.0 2Q28.0 2 28.0 -5Q28.0 -14 53.0 -14Q54.0 -14 63.0 -14Q72.0 -13 89.0 -13H105.0Q138.0 -13 153.0 -31Q161.0 -41 176.0 -81L329.0 -494Q374.0 -615 374.0 -632Q374.0 -651 352.0 -651Q342.0 -651 299.0 -643Q288.0 -641 281.0 -641Q270.0 -641 270.0 -648Q270.0 -655 321.0 -664Q421.0 -682 484.0 -707Q487.0 -708 490.0 -709Q496.0 -709 496.0 -702ZM1096.0 -519Q1096.0 -397 1037.0 -269Q980.0 -147 893.0 -68Q802.0 15 715.0 15Q652.0 15 614.0 -39.5Q576.0 -94 576.0 -184Q576.0 -344 711.0 -537Q828.0 -704 960.0 -704Q1024.0 -704 1060.0 -655.0Q1096.0 -606 1096.0 -519ZM1023.0 -601Q1023.0 -689 955.0 -689Q856.0 -689 752.0 -465Q705.0 -362 673.0 -243Q654.0 -171 654.0 -105Q654.0 -3 727.0 -3Q785.0 -3 830.5 -62.0Q876.0 -121 938.0 -276Q1023.0 -489 1023.0 -601ZM1620.0 -519Q1620.0 -397 1561.0 -269Q1504.0 -147 1417.0 -68Q1326.0 15 1239.0 15Q1176.0 15 1138.0 -39.5Q1100.0 -94 1100.0 -184Q1100.0 -344 1235.0 -537Q1352.0 -704 1484.0 -704Q1548.0 -704 1584.0 -655.0Q1620.0 -606 1620.0 -519ZM1547.0 -601Q1547.0 -689 1479.0 -689Q1380.0 -689 1276.0 -465Q1229.0 -362 1197.0 -243Q1178.0 -171 1178.0 -105Q1178.0 -3 1251.0 -3Q1309.0 -3 1354.5 -62.0Q1400.0 -121 1462.0 -276Q1547.0 -489 1547.0 -601ZM2144.0 -519Q2144.0 -397 2085.0 -269Q2028.0 -147 1941.0 -68Q1850.0 15 1763.0 15Q1700.0 15 1662.0 -39.5Q1624.0 -94 1624.0 -184Q1624.0 -344 1759.0 -537Q1876.0 -704 2008.0 -704Q2072.0 -704 2108.0 -655.0Q2144.0 -606 2144.0 -519ZM2071.0 -601Q2071.0 -689 2003.0 -689Q1904.0 -689 1800.0 -465Q1753.0 -362 1721.0 -243Q1702.0 -171 1702.0 -105Q1702.0 -3 1775.0 -3Q1833.0 -3 1878.5 -62.0Q1924.0 -121 1986.0 -276Q2071.0 -489 2071.0 -601Z" fill="#0a1722"/></svg>
