<svg xmlns="http://www.w3.org/2000/svg" viewBox="58.5 -728.9 2300.3 795.8" fill="none" role="img" aria-label="1000"><path d="M467.48789593169016 -7.0Q465.78744343833 1.0 439.78744343833 1.0H415.78744343833Q402.21255656167 -1.0 306.0 0.0L180.78744343832997 1.0Q168.78744343832997 1.0 152.57488687665995 2.0Q138.57488687665995 2.0 136.57488687665995 2.0Q111.57488687665996 2.0 113.48789593169016 -7.0Q114.76323530171028 -13.0 119.97579186338031 -14.0Q125.18834842505034 -15.0 159.18834842505032 -15.0Q203.40090498672035 -16.0 215.52647060342056 -26.0Q223.43947965845078 -35.0 227.26549776851118 -53.0L306.3365387097594 -425.0Q331.630769548492 -544.0 331.75633516519224 -554.0Q332.1572401519126 -570.0 307.1572401519126 -570.0L255.9446835902426 -569.0Q229.73212702857256 -568.0 231.64513608360278 -577.0Q232.92047545362288 -583.0 266.558145138633 -586.0Q353.0460410703231 -593.0 420.4855207287739 -628.0Q423.91063385211396 -630.0 461.3743216471844 -651.0L504.2631225655949 -674.0L505.0747741405446 -659.0Q504.4371044555345 -656.0 500.6738691538242 -643.0L397.5839367438635 -158.0Q378.2412896318915 -67.0 377.69061089185124 -55.0Q370.1883484250503 -15.0 408.4009049867204 -16.0Q469.8260181100604 -18.0 467.48789593169016 -7.0ZM1168.443212857747 -322.0Q1137.4099548539239 -176.0 1046.4296380569417 -82.0Q955.4493212599598 12.0 846.4493212599598 12.0Q737.4493212599598 12.0 681.4924208652919 -87.0Q625.5355204706241 -186.0 655.2934391044272 -326.0Q695.0415161367214 -513.0 833.5097288653935 -614.0Q905.7752266339048 -667.0 989.7752266339048 -667.0Q1065.7752266339048 -667.0 1110.0604076054337 -626.0Q1156.7079188919529 -582.0 1172.7782808350112 -500.0Q1188.8486427780692 -418.0 1168.443212857747 -322.0ZM1007.0566744061375 -339.0Q1051.9061089185122 -550.0 1034.2971723037235 -613.0Q1023.9492085238444 -649.0 983.9492085238444 -649.0Q932.9492085238444 -649.0 897.0702492069428 -579.0Q857.7033939583512 -502.0 826.0324662695178 -353.0Q775.6565611537226 -116.0 804.139932151811 -43.0Q818.2753393700201 -6.0 851.2753393700201 -6.0Q901.2753393700201 -6.0 933.3668552485917 -77.0Q967.3085973738434 -152.0 1007.0566744061375 -339.0ZM1730.443212857747 -322.0Q1699.4099548539239 -176.0 1608.4296380569417 -82.0Q1517.4493212599598 12.0 1408.4493212599598 12.0Q1299.4493212599598 12.0 1243.492420865292 -87.0Q1187.535520470624 -186.0 1217.2934391044273 -326.0Q1257.0415161367214 -513.0 1395.5097288653935 -614.0Q1467.7752266339048 -667.0 1551.7752266339048 -667.0Q1627.7752266339048 -667.0 1672.0604076054337 -626.0Q1718.7079188919529 -582.0 1734.7782808350112 -500.0Q1750.8486427780692 -418.0 1730.443212857747 -322.0ZM1569.0566744061375 -339.0Q1613.9061089185122 -550.0 1596.2971723037235 -613.0Q1585.9492085238444 -649.0 1545.9492085238444 -649.0Q1494.9492085238444 -649.0 1459.0702492069427 -579.0Q1419.7033939583512 -502.0 1388.032466269518 -353.0Q1337.6565611537226 -116.0 1366.1399321518109 -43.0Q1380.27533937002 -6.0 1413.27533937002 -6.0Q1463.27533937002 -6.0 1495.3668552485917 -77.0Q1529.3085973738434 -152.0 1569.0566744061375 -339.0ZM2292.4432128577473 -322.0Q2261.409954853924 -176.0 2170.4296380569417 -82.0Q2079.4493212599596 12.0 1970.4493212599598 12.0Q1861.4493212599598 12.0 1805.492420865292 -87.0Q1749.535520470624 -186.0 1779.2934391044273 -326.0Q1819.0415161367214 -513.0 1957.5097288653935 -614.0Q2029.7752266339048 -667.0 2113.775226633905 -667.0Q2189.775226633905 -667.0 2234.0604076054337 -626.0Q2280.707918891953 -582.0 2296.778280835011 -500.0Q2312.848642778069 -418.0 2292.4432128577473 -322.0ZM2131.0566744061375 -339.0Q2175.906108918512 -550.0 2158.2971723037235 -613.0Q2147.9492085238444 -649.0 2107.9492085238444 -649.0Q2056.9492085238444 -649.0 2021.0702492069427 -579.0Q1981.7033939583512 -502.0 1950.032466269518 -353.0Q1899.6565611537226 -116.0 1928.1399321518109 -43.0Q1942.27533937002 -6.0 1975.27533937002 -6.0Q2025.27533937002 -6.0 2057.3668552485915 -77.0Q2091.3085973738434 -152.0 2131.0566744061375 -339.0Z" fill="#0a1722"/></svg>
