<svg xmlns="http://www.w3.org/2000/svg" viewBox="107.1 -1512.9 5200.8 1651.8" fill="none" role="img" aria-label="1000"><path d="M688.0 -1389H899.0V-158L922.0 -127L1147.0 -117V0H279.0V-119L516.0 -131L541.0 -166V-1120L514.0 -1143L221.0 -1104V-1227ZM1976.0 -1266Q1873.0 -1266 1823.5 -1124.5Q1774.0 -983 1774.0 -690Q1774.0 -387 1822.5 -249.0Q1871.0 -111 1976.0 -111Q2083.0 -111 2132.0 -249.0Q2181.0 -387 2181.0 -690Q2181.0 -989 2131.5 -1127.5Q2082.0 -1266 1976.0 -1266ZM1974.0 -1399Q2244.0 -1399 2400.0 -1209.0Q2556.0 -1019 2556.0 -688Q2556.0 -357 2400.0 -166.0Q2244.0 25 1974.0 25Q1708.0 25 1554.5 -165.5Q1401.0 -356 1401.0 -688Q1401.0 -1019 1554.0 -1209.0Q1707.0 -1399 1974.0 -1399ZM3295.0 -1266Q3192.0 -1266 3142.5 -1124.5Q3093.0 -983 3093.0 -690Q3093.0 -387 3141.5 -249.0Q3190.0 -111 3295.0 -111Q3402.0 -111 3451.0 -249.0Q3500.0 -387 3500.0 -690Q3500.0 -989 3450.5 -1127.5Q3401.0 -1266 3295.0 -1266ZM3293.0 -1399Q3563.0 -1399 3719.0 -1209.0Q3875.0 -1019 3875.0 -688Q3875.0 -357 3719.0 -166.0Q3563.0 25 3293.0 25Q3027.0 25 2873.5 -165.5Q2720.0 -356 2720.0 -688Q2720.0 -1019 2873.0 -1209.0Q3026.0 -1399 3293.0 -1399ZM4614.0 -1266Q4511.0 -1266 4461.5 -1124.5Q4412.0 -983 4412.0 -690Q4412.0 -387 4460.5 -249.0Q4509.0 -111 4614.0 -111Q4721.0 -111 4770.0 -249.0Q4819.0 -387 4819.0 -690Q4819.0 -989 4769.5 -1127.5Q4720.0 -1266 4614.0 -1266ZM4612.0 -1399Q4882.0 -1399 5038.0 -1209.0Q5194.0 -1019 5194.0 -688Q5194.0 -357 5038.0 -166.0Q4882.0 25 4612.0 25Q4346.0 25 4192.5 -165.5Q4039.0 -356 4039.0 -688Q4039.0 -1019 4192.0 -1209.0Q4345.0 -1399 4612.0 -1399Z" fill="#0a1722"/></svg>
