<svg xmlns="http://www.w3.org/2000/svg" viewBox="42.4 -720.6 1966.1 791.1" fill="none" role="img" aria-label="1000"><path d="M97.0 -8Q126.0 -11 146.5 -16.0Q167.0 -21 180.5 -32.5Q194.0 -44 200.0 -64.0Q206.0 -84 206.0 -118V-495Q206.0 -533 202.5 -555.5Q199.0 -578 188.5 -589.5Q178.0 -601 157.0 -605.0Q136.0 -609 102.0 -610V-626Q141.0 -628 184.5 -637.0Q228.0 -646 263.0 -666H286.0V-72Q286.0 -55 291.0 -44.5Q296.0 -34 308.0 -27.0Q320.0 -20 340.5 -16.0Q361.0 -12 391.0 -8V4Q352.0 2 313.0 1.0Q274.0 0 235.0 0Q200.0 0 166.0 1.0Q132.0 2 97.0 4ZM749.0 -666Q786.0 -666 823.0 -648.0Q860.0 -630 889.0 -589.5Q918.0 -549 936.0 -484.0Q954.0 -419 954.0 -325Q954.0 -231 936.0 -166.0Q918.0 -101 889.0 -60.5Q860.0 -20 823.0 -2.0Q786.0 16 749.0 16Q711.0 16 674.5 -2.0Q638.0 -20 609.5 -60.5Q581.0 -101 563.0 -166.0Q545.0 -231 545.0 -325Q545.0 -419 563.0 -484.0Q581.0 -549 609.5 -589.5Q638.0 -630 674.5 -648.0Q711.0 -666 749.0 -666ZM750.0 -636Q720.0 -636 698.0 -614.5Q676.0 -593 661.5 -552.5Q647.0 -512 640.0 -454.5Q633.0 -397 633.0 -326Q633.0 -255 640.0 -197.0Q647.0 -139 661.5 -98.5Q676.0 -58 698.0 -36.0Q720.0 -14 750.0 -14Q780.0 -14 801.5 -36.0Q823.0 -58 837.5 -98.5Q852.0 -139 859.0 -197.0Q866.0 -255 866.0 -326Q866.0 -397 859.0 -454.5Q852.0 -512 837.5 -552.5Q823.0 -593 801.5 -614.5Q780.0 -636 750.0 -636ZM1249.0 -666Q1286.0 -666 1323.0 -648.0Q1360.0 -630 1389.0 -589.5Q1418.0 -549 1436.0 -484.0Q1454.0 -419 1454.0 -325Q1454.0 -231 1436.0 -166.0Q1418.0 -101 1389.0 -60.5Q1360.0 -20 1323.0 -2.0Q1286.0 16 1249.0 16Q1211.0 16 1174.5 -2.0Q1138.0 -20 1109.5 -60.5Q1081.0 -101 1063.0 -166.0Q1045.0 -231 1045.0 -325Q1045.0 -419 1063.0 -484.0Q1081.0 -549 1109.5 -589.5Q1138.0 -630 1174.5 -648.0Q1211.0 -666 1249.0 -666ZM1250.0 -636Q1220.0 -636 1198.0 -614.5Q1176.0 -593 1161.5 -552.5Q1147.0 -512 1140.0 -454.5Q1133.0 -397 1133.0 -326Q1133.0 -255 1140.0 -197.0Q1147.0 -139 1161.5 -98.5Q1176.0 -58 1198.0 -36.0Q1220.0 -14 1250.0 -14Q1280.0 -14 1301.5 -36.0Q1323.0 -58 1337.5 -98.5Q1352.0 -139 1359.0 -197.0Q1366.0 -255 1366.0 -326Q1366.0 -397 1359.0 -454.5Q1352.0 -512 1337.5 -552.5Q1323.0 -593 1301.5 -614.5Q1280.0 -636 1250.0 -636ZM1749.0 -666Q1786.0 -666 1823.0 -648.0Q1860.0 -630 1889.0 -589.5Q1918.0 -549 1936.0 -484.0Q1954.0 -419 1954.0 -325Q1954.0 -231 1936.0 -166.0Q1918.0 -101 1889.0 -60.5Q1860.0 -20 1823.0 -2.0Q1786.0 16 1749.0 16Q1711.0 16 1674.5 -2.0Q1638.0 -20 1609.5 -60.5Q1581.0 -101 1563.0 -166.0Q1545.0 -231 1545.0 -325Q1545.0 -419 1563.0 -484.0Q1581.0 -549 1609.5 -589.5Q1638.0 -630 1674.5 -648.0Q1711.0 -666 1749.0 -666ZM1750.0 -636Q1720.0 -636 1698.0 -614.5Q1676.0 -593 1661.5 -552.5Q1647.0 -512 1640.0 -454.5Q1633.0 -397 1633.0 -326Q1633.0 -255 1640.0 -197.0Q1647.0 -139 1661.5 -98.5Q1676.0 -58 1698.0 -36.0Q1720.0 -14 1750.0 -14Q1780.0 -14 1801.5 -36.0Q1823.0 -58 1837.5 -98.5Q1852.0 -139 1859.0 -197.0Q1866.0 -255 1866.0 -326Q1866.0 -397 1859.0 -454.5Q1852.0 -512 1837.5 -552.5Q1823.0 -593 1801.5 -614.5Q1780.0 -636 1750.0 -636Z" fill="#0a1722"/></svg>
