<svg xmlns="http://www.w3.org/2000/svg" viewBox="37.7 -787.3 2211.6 859.6" fill="none" role="img" aria-label="1000"><path d="M450.0 0V-14H358.0V-728H318.0Q288.0 -700 263.0 -680.5Q238.0 -661 213.5 -645.0Q189.0 -629 161.0 -613.0Q133.0 -597 97.0 -576L105.0 -563Q137.0 -581 170.0 -600.0Q203.0 -619 236.0 -637V-14H142.0V0ZM725.0 -357Q725.0 -452 727.5 -519.5Q730.0 -587 741.0 -630.0Q752.0 -673 773.5 -693.5Q795.0 -714 834.0 -714Q873.0 -714 894.5 -695.5Q916.0 -677 927.0 -634.5Q938.0 -592 940.5 -524.0Q943.0 -456 943.0 -357Q943.0 -263 940.5 -195.0Q938.0 -127 927.0 -84.0Q916.0 -41 894.5 -20.5Q873.0 0 834.0 0Q795.0 0 773.5 -20.5Q752.0 -41 741.0 -84.0Q730.0 -127 727.5 -195.0Q725.0 -263 725.0 -357ZM590.0 -357Q590.0 -338 591.0 -303.0Q592.0 -268 599.0 -227.0Q606.0 -186 620.5 -143.5Q635.0 -101 662.0 -66.0Q689.0 -31 731.0 -9.0Q773.0 13 834.0 13Q889.0 13 928.5 -7.5Q968.0 -28 995.0 -61.5Q1022.0 -95 1038.5 -136.0Q1055.0 -177 1063.5 -218.5Q1072.0 -260 1075.0 -296.5Q1078.0 -333 1078.0 -357Q1078.0 -376 1077.0 -410.5Q1076.0 -445 1069.0 -486.5Q1062.0 -528 1047.5 -571.0Q1033.0 -614 1006.0 -648.5Q979.0 -683 937.0 -705.5Q895.0 -728 834.0 -728Q779.0 -728 739.5 -707.0Q700.0 -686 673.0 -653.0Q646.0 -620 629.5 -578.5Q613.0 -537 604.5 -495.5Q596.0 -454 593.0 -417.5Q590.0 -381 590.0 -357ZM1281.0 -357Q1281.0 -452 1283.5 -519.5Q1286.0 -587 1297.0 -630.0Q1308.0 -673 1329.5 -693.5Q1351.0 -714 1390.0 -714Q1429.0 -714 1450.5 -695.5Q1472.0 -677 1483.0 -634.5Q1494.0 -592 1496.5 -524.0Q1499.0 -456 1499.0 -357Q1499.0 -263 1496.5 -195.0Q1494.0 -127 1483.0 -84.0Q1472.0 -41 1450.5 -20.5Q1429.0 0 1390.0 0Q1351.0 0 1329.5 -20.5Q1308.0 -41 1297.0 -84.0Q1286.0 -127 1283.5 -195.0Q1281.0 -263 1281.0 -357ZM1146.0 -357Q1146.0 -338 1147.0 -303.0Q1148.0 -268 1155.0 -227.0Q1162.0 -186 1176.5 -143.5Q1191.0 -101 1218.0 -66.0Q1245.0 -31 1287.0 -9.0Q1329.0 13 1390.0 13Q1445.0 13 1484.5 -7.5Q1524.0 -28 1551.0 -61.5Q1578.0 -95 1594.5 -136.0Q1611.0 -177 1619.5 -218.5Q1628.0 -260 1631.0 -296.5Q1634.0 -333 1634.0 -357Q1634.0 -376 1633.0 -410.5Q1632.0 -445 1625.0 -486.5Q1618.0 -528 1603.5 -571.0Q1589.0 -614 1562.0 -648.5Q1535.0 -683 1493.0 -705.5Q1451.0 -728 1390.0 -728Q1335.0 -728 1295.5 -707.0Q1256.0 -686 1229.0 -653.0Q1202.0 -620 1185.5 -578.5Q1169.0 -537 1160.5 -495.5Q1152.0 -454 1149.0 -417.5Q1146.0 -381 1146.0 -357ZM1837.0 -357Q1837.0 -452 1839.5 -519.5Q1842.0 -587 1853.0 -630.0Q1864.0 -673 1885.5 -693.5Q1907.0 -714 1946.0 -714Q1985.0 -714 2006.5 -695.5Q2028.0 -677 2039.0 -634.5Q2050.0 -592 2052.5 -524.0Q2055.0 -456 2055.0 -357Q2055.0 -263 2052.5 -195.0Q2050.0 -127 2039.0 -84.0Q2028.0 -41 2006.5 -20.5Q1985.0 0 1946.0 0Q1907.0 0 1885.5 -20.5Q1864.0 -41 1853.0 -84.0Q1842.0 -127 1839.5 -195.0Q1837.0 -263 1837.0 -357ZM1702.0 -357Q1702.0 -338 1703.0 -303.0Q1704.0 -268 1711.0 -227.0Q1718.0 -186 1732.5 -143.5Q1747.0 -101 1774.0 -66.0Q1801.0 -31 1843.0 -9.0Q1885.0 13 1946.0 13Q2001.0 13 2040.5 -7.5Q2080.0 -28 2107.0 -61.5Q2134.0 -95 2150.5 -136.0Q2167.0 -177 2175.5 -218.5Q2184.0 -260 2187.0 -296.5Q2190.0 -333 2190.0 -357Q2190.0 -376 2189.0 -410.5Q2188.0 -445 2181.0 -486.5Q2174.0 -528 2159.5 -571.0Q2145.0 -614 2118.0 -648.5Q2091.0 -683 2049.0 -705.5Q2007.0 -728 1946.0 -728Q1891.0 -728 1851.5 -707.0Q1812.0 -686 1785.0 -653.0Q1758.0 -620 1741.5 -578.5Q1725.0 -537 1716.5 -495.5Q1708.0 -454 1705.0 -417.5Q1702.0 -381 1702.0 -357Z" fill="#0a1722"/></svg>
