<svg xmlns="http://www.w3.org/2000/svg" viewBox="9.6 -478.4 1982.8 527.8" fill="none" role="img" aria-label="1000"><path d="M124.0 -415V-14H46.0V0H288.0V-14H210.0V-415H288.0V-429H46.0V-415ZM477.0 -214Q477.0 -283 488.5 -325.0Q500.0 -367 518.5 -390.0Q537.0 -413 561.5 -420.5Q586.0 -428 612.0 -428Q638.0 -428 662.5 -420.5Q687.0 -413 705.5 -390.0Q724.0 -367 735.5 -325.0Q747.0 -283 747.0 -214Q747.0 -145 735.5 -103.0Q724.0 -61 705.5 -38.0Q687.0 -15 662.5 -7.5Q638.0 0 612.0 0Q586.0 0 561.5 -7.5Q537.0 -15 518.5 -38.0Q500.0 -61 488.5 -103.0Q477.0 -145 477.0 -214ZM380.0 -214Q380.0 -168 399.5 -127.0Q419.0 -86 451.5 -55.0Q484.0 -24 525.5 -5.5Q567.0 13 612.0 13Q657.0 13 698.5 -5.5Q740.0 -24 772.5 -55.0Q805.0 -86 824.5 -127.0Q844.0 -168 844.0 -214Q844.0 -263 823.0 -304.5Q802.0 -346 769.0 -376.5Q736.0 -407 694.5 -424.5Q653.0 -442 612.0 -442Q571.0 -442 529.5 -424.5Q488.0 -407 455.0 -376.5Q422.0 -346 401.0 -304.5Q380.0 -263 380.0 -214ZM1033.0 -214Q1033.0 -283 1044.5 -325.0Q1056.0 -367 1074.5 -390.0Q1093.0 -413 1117.5 -420.5Q1142.0 -428 1168.0 -428Q1194.0 -428 1218.5 -420.5Q1243.0 -413 1261.5 -390.0Q1280.0 -367 1291.5 -325.0Q1303.0 -283 1303.0 -214Q1303.0 -145 1291.5 -103.0Q1280.0 -61 1261.5 -38.0Q1243.0 -15 1218.5 -7.5Q1194.0 0 1168.0 0Q1142.0 0 1117.5 -7.5Q1093.0 -15 1074.5 -38.0Q1056.0 -61 1044.5 -103.0Q1033.0 -145 1033.0 -214ZM936.0 -214Q936.0 -168 955.5 -127.0Q975.0 -86 1007.5 -55.0Q1040.0 -24 1081.5 -5.5Q1123.0 13 1168.0 13Q1213.0 13 1254.5 -5.5Q1296.0 -24 1328.5 -55.0Q1361.0 -86 1380.5 -127.0Q1400.0 -168 1400.0 -214Q1400.0 -263 1379.0 -304.5Q1358.0 -346 1325.0 -376.5Q1292.0 -407 1250.5 -424.5Q1209.0 -442 1168.0 -442Q1127.0 -442 1085.5 -424.5Q1044.0 -407 1011.0 -376.5Q978.0 -346 957.0 -304.5Q936.0 -263 936.0 -214ZM1589.0 -214Q1589.0 -283 1600.5 -325.0Q1612.0 -367 1630.5 -390.0Q1649.0 -413 1673.5 -420.5Q1698.0 -428 1724.0 -428Q1750.0 -428 1774.5 -420.5Q1799.0 -413 1817.5 -390.0Q1836.0 -367 1847.5 -325.0Q1859.0 -283 1859.0 -214Q1859.0 -145 1847.5 -103.0Q1836.0 -61 1817.5 -38.0Q1799.0 -15 1774.5 -7.5Q1750.0 0 1724.0 0Q1698.0 0 1673.5 -7.5Q1649.0 -15 1630.5 -38.0Q1612.0 -61 1600.5 -103.0Q1589.0 -145 1589.0 -214ZM1492.0 -214Q1492.0 -168 1511.5 -127.0Q1531.0 -86 1563.5 -55.0Q1596.0 -24 1637.5 -5.5Q1679.0 13 1724.0 13Q1769.0 13 1810.5 -5.5Q1852.0 -24 1884.5 -55.0Q1917.0 -86 1936.5 -127.0Q1956.0 -168 1956.0 -214Q1956.0 -263 1935.0 -304.5Q1914.0 -346 1881.0 -376.5Q1848.0 -407 1806.5 -424.5Q1765.0 -442 1724.0 -442Q1683.0 -442 1641.5 -424.5Q1600.0 -407 1567.0 -376.5Q1534.0 -346 1513.0 -304.5Q1492.0 -263 1492.0 -214Z" fill="#0a1722"/></svg>
