<svg xmlns="http://www.w3.org/2000/svg" viewBox="160.4 -1697.6 4936.2 1850.2" fill="none" role="img" aria-label="1000"><path d="M555.0 -1326H288.0L416.0 -1544H788.0V0H555.0ZM1351.0 -782Q1351.0 -1151 1523.0 -1371Q1677.0 -1570 1896.0 -1570Q2115.0 -1570 2269.0 -1371Q2441.0 -1151 2441.0 -772Q2441.0 -394 2269.0 -174Q2115.0 25 1897.0 25Q1679.0 25 1523.0 -174Q1351.0 -394 1351.0 -782ZM1580.0 -781Q1580.0 -524 1669.0 -354Q1758.0 -187 1896.0 -187Q2033.0 -187 2123.0 -354Q2213.0 -520 2213.0 -773Q2213.0 -1026 2123.0 -1193Q2033.0 -1359 1896.0 -1359Q1760.0 -1359 1670.0 -1193Q1580.0 -1028 1580.0 -781ZM2615.0 -782Q2615.0 -1151 2787.0 -1371Q2941.0 -1570 3160.0 -1570Q3379.0 -1570 3533.0 -1371Q3705.0 -1151 3705.0 -772Q3705.0 -394 3533.0 -174Q3379.0 25 3161.0 25Q2943.0 25 2787.0 -174Q2615.0 -394 2615.0 -782ZM2844.0 -781Q2844.0 -524 2933.0 -354Q3022.0 -187 3160.0 -187Q3297.0 -187 3387.0 -354Q3477.0 -520 3477.0 -773Q3477.0 -1026 3387.0 -1193Q3297.0 -1359 3160.0 -1359Q3024.0 -1359 2934.0 -1193Q2844.0 -1028 2844.0 -781ZM3879.0 -782Q3879.0 -1151 4051.0 -1371Q4205.0 -1570 4424.0 -1570Q4643.0 -1570 4797.0 -1371Q4969.0 -1151 4969.0 -772Q4969.0 -394 4797.0 -174Q4643.0 25 4425.0 25Q4207.0 25 4051.0 -174Q3879.0 -394 3879.0 -782ZM4108.0 -781Q4108.0 -524 4197.0 -354Q4286.0 -187 4424.0 -187Q4561.0 -187 4651.0 -354Q4741.0 -520 4741.0 -773Q4741.0 -1026 4651.0 -1193Q4561.0 -1359 4424.0 -1359Q4288.0 -1359 4198.0 -1193Q4108.0 -1028 4108.0 -781Z" fill="#0a1722"/></svg>
