<svg xmlns="http://www.w3.org/2000/svg" viewBox="181.1 -1699.9 4804.8 1854.8" fill="none" role="img" aria-label="1000"><path d="M893.0 0H476.0V-1181H309.0V-1544H893.0ZM2394.0 -762Q2394.0 -400 2250.0 -186Q2106.0 27 1863.0 27Q1600.0 27 1451.0 -188Q1303.0 -402 1303.0 -786Q1303.0 -1149 1451.0 -1360Q1600.0 -1572 1853.0 -1572Q2108.0 -1572 2251.0 -1357.0Q2394.0 -1142 2394.0 -762ZM1982.0 -765Q1982.0 -1212 1847.0 -1212Q1713.0 -1212 1713.0 -812Q1713.0 -334 1844.0 -334Q1915.0 -334 1948.5 -438.5Q1982.0 -543 1982.0 -765ZM3626.0 -762Q3626.0 -400 3482.0 -186Q3338.0 27 3095.0 27Q2832.0 27 2683.0 -188Q2535.0 -402 2535.0 -786Q2535.0 -1149 2683.0 -1360Q2832.0 -1572 3085.0 -1572Q3340.0 -1572 3483.0 -1357.0Q3626.0 -1142 3626.0 -762ZM3214.0 -765Q3214.0 -1212 3079.0 -1212Q2945.0 -1212 2945.0 -812Q2945.0 -334 3076.0 -334Q3147.0 -334 3180.5 -438.5Q3214.0 -543 3214.0 -765ZM4858.0 -762Q4858.0 -400 4714.0 -186Q4570.0 27 4327.0 27Q4064.0 27 3915.0 -188Q3767.0 -402 3767.0 -786Q3767.0 -1149 3915.0 -1360Q4064.0 -1572 4317.0 -1572Q4572.0 -1572 4715.0 -1357.0Q4858.0 -1142 4858.0 -762ZM4446.0 -765Q4446.0 -1212 4311.0 -1212Q4177.0 -1212 4177.0 -812Q4177.0 -334 4308.0 -334Q4379.0 -334 4412.5 -438.5Q4446.0 -543 4446.0 -765Z" fill="#0a1722"/></svg>
