<svg xmlns="http://www.w3.org/2000/svg" viewBox="344.4 -1529.6 3800.3 1662.3" fill="none" role="img" aria-label="1000"><path d="M563.0 -1397V0H459.0V-1397ZM1536.0 -1415Q1724.0 -1415 1853.0 -1226.5Q1982.0 -1038 1982.0 -692Q1982.0 -370 1855.5 -176.0Q1729.0 18 1540.0 18Q1342.0 18 1216.0 -172.5Q1090.0 -363 1090.0 -674Q1090.0 -1061 1225.5 -1238.0Q1361.0 -1415 1536.0 -1415ZM1532.0 -80Q1688.0 -80 1783.0 -256.0Q1878.0 -432 1878.0 -702Q1878.0 -966 1785.5 -1141.5Q1693.0 -1317 1536.0 -1317Q1388.0 -1317 1291.0 -1144.5Q1194.0 -972 1194.0 -698Q1194.0 -421 1288.5 -250.5Q1383.0 -80 1532.0 -80ZM2560.0 -1415Q2748.0 -1415 2877.0 -1226.5Q3006.0 -1038 3006.0 -692Q3006.0 -370 2879.5 -176.0Q2753.0 18 2564.0 18Q2366.0 18 2240.0 -172.5Q2114.0 -363 2114.0 -674Q2114.0 -1061 2249.5 -1238.0Q2385.0 -1415 2560.0 -1415ZM2556.0 -80Q2712.0 -80 2807.0 -256.0Q2902.0 -432 2902.0 -702Q2902.0 -966 2809.5 -1141.5Q2717.0 -1317 2560.0 -1317Q2412.0 -1317 2315.0 -1144.5Q2218.0 -972 2218.0 -698Q2218.0 -421 2312.5 -250.5Q2407.0 -80 2556.0 -80ZM3584.0 -1415Q3772.0 -1415 3901.0 -1226.5Q4030.0 -1038 4030.0 -692Q4030.0 -370 3903.5 -176.0Q3777.0 18 3588.0 18Q3390.0 18 3264.0 -172.5Q3138.0 -363 3138.0 -674Q3138.0 -1061 3273.5 -1238.0Q3409.0 -1415 3584.0 -1415ZM3580.0 -80Q3736.0 -80 3831.0 -256.0Q3926.0 -432 3926.0 -702Q3926.0 -966 3833.5 -1141.5Q3741.0 -1317 3584.0 -1317Q3436.0 -1317 3339.0 -1144.5Q3242.0 -972 3242.0 -698Q3242.0 -421 3336.5 -250.5Q3431.0 -80 3580.0 -80Z" fill="#0a1722"/></svg>
