<svg xmlns="http://www.w3.org/2000/svg" viewBox="10.3 -1033.7 4625.4 1155.4" fill="none" role="img" aria-label="1000"><path d="M860.0 -32Q860.0 -22 855.0 -5.0Q850.0 12 844.0 12Q774.0 12 663.0 6.0Q552.0 0 476.0 0Q404.0 0 286.0 6.0Q168.0 12 106.0 12Q100.0 12 95.0 -5.0Q90.0 -22 90.0 -32Q90.0 -44 95.0 -60.0Q100.0 -76 106.0 -76Q198.0 -88 252.0 -103.0Q306.0 -118 306.0 -238V-674Q306.0 -788 247.0 -807.0Q188.0 -826 106.0 -836Q100.0 -836 95.0 -852.0Q90.0 -868 90.0 -880Q90.0 -892 95.0 -908.0Q100.0 -924 106.0 -924Q176.0 -924 288.0 -918.0Q400.0 -912 476.0 -912Q548.0 -912 665.0 -918.0Q782.0 -924 844.0 -924Q850.0 -924 855.0 -909.0Q860.0 -894 860.0 -880Q860.0 -866 855.0 -851.0Q850.0 -836 844.0 -836Q764.0 -828 705.0 -803.0Q646.0 -778 646.0 -674V-238Q646.0 -126 704.0 -105.0Q762.0 -84 844.0 -76Q850.0 -76 855.0 -61.0Q860.0 -46 860.0 -32ZM2096.0 -450Q2096.0 -244 1961.0 -101.0Q1826.0 42 1566.0 42Q1306.0 42 1170.0 -100.0Q1034.0 -242 1034.0 -450Q1034.0 -656 1169.0 -805.0Q1304.0 -954 1566.0 -954Q1824.0 -954 1960.0 -806.0Q2096.0 -658 2096.0 -450ZM1732.0 -450Q1732.0 -642 1699.0 -750.0Q1666.0 -858 1566.0 -858Q1468.0 -858 1433.0 -754.0Q1398.0 -650 1398.0 -450Q1398.0 -260 1431.0 -157.0Q1464.0 -54 1566.0 -54Q1666.0 -54 1699.0 -157.0Q1732.0 -260 1732.0 -450ZM3326.0 -450Q3326.0 -244 3191.0 -101.0Q3056.0 42 2796.0 42Q2536.0 42 2400.0 -100.0Q2264.0 -242 2264.0 -450Q2264.0 -656 2399.0 -805.0Q2534.0 -954 2796.0 -954Q3054.0 -954 3190.0 -806.0Q3326.0 -658 3326.0 -450ZM2962.0 -450Q2962.0 -642 2929.0 -750.0Q2896.0 -858 2796.0 -858Q2698.0 -858 2663.0 -754.0Q2628.0 -650 2628.0 -450Q2628.0 -260 2661.0 -157.0Q2694.0 -54 2796.0 -54Q2896.0 -54 2929.0 -157.0Q2962.0 -260 2962.0 -450ZM4556.0 -450Q4556.0 -244 4421.0 -101.0Q4286.0 42 4026.0 42Q3766.0 42 3630.0 -100.0Q3494.0 -242 3494.0 -450Q3494.0 -656 3629.0 -805.0Q3764.0 -954 4026.0 -954Q4284.0 -954 4420.0 -806.0Q4556.0 -658 4556.0 -450ZM4192.0 -450Q4192.0 -642 4159.0 -750.0Q4126.0 -858 4026.0 -858Q3928.0 -858 3893.0 -754.0Q3858.0 -650 3858.0 -450Q3858.0 -260 3891.0 -157.0Q3924.0 -54 4026.0 -54Q4126.0 -54 4159.0 -157.0Q4192.0 -260 4192.0 -450Z" fill="#0a1722"/></svg>
