<svg xmlns="http://www.w3.org/2000/svg" viewBox="90.0 -4277.7 4466.0 4466.0" width="512" height="512" fill="none" role="img" aria-label="1000"><path d="M860.0 -143.4859437751004Q860.0 -98.64658634538152 855.0 -22.419678714859437Q850.0 53.80722891566265 844.0 53.80722891566265Q774.0 53.80722891566265 663.0 26.903614457831324Q552.0 0.0 476.0 0.0Q404.0 0.0 286.0 26.903614457831324Q168.0 53.80722891566265 106.0 53.80722891566265Q100.0 53.80722891566265 95.0 -22.419678714859437Q90.0 -98.64658634538152 90.0 -143.4859437751004Q90.0 -197.29317269076304 95.0 -269.03614457831327Q100.0 -340.77911646586347 106.0 -340.77911646586347Q198.0 -394.5863453815261 252.0 -461.84538152610435Q306.0 -529.1044176706827 306.0 -1067.176706827309V-3022.1726907630523Q306.0 -3533.341365461847 247.0 -3618.536144578313Q188.0 -3703.730923694779 106.0 -3748.570281124498Q100.0 -3748.570281124498 95.0 -3820.3132530120483Q90.0 -3892.0562248995984 90.0 -3945.863453815261Q90.0 -3999.6706827309235 95.0 -4071.4136546184736Q100.0 -4143.156626506024 106.0 -4143.156626506024Q176.0 -4143.156626506024 288.0 -4116.253012048192Q400.0 -4089.349397590361 476.0 -4089.349397590361Q548.0 -4089.349397590361 665.0 -4116.253012048192Q782.0 -4143.156626506024 844.0 -4143.156626506024Q850.0 -4143.156626506024 855.0 -4075.8975903614455Q860.0 -4008.6385542168673 860.0 -3945.863453815261Q860.0 -3883.0883534136547 855.0 -3815.8293172690765Q850.0 -3748.570281124498 844.0 -3748.570281124498Q764.0 -3712.6987951807228 705.0 -3600.6004016064253Q646.0 -3488.5020080321283 646.0 -3022.1726907630523V-1067.176706827309Q646.0 -564.9759036144578 704.0 -470.81325301204816Q762.0 -376.6506024096385 844.0 -340.77911646586347Q850.0 -340.77911646586347 855.0 -273.52008032128515Q860.0 -206.26104417670683 860.0 -143.4859437751004ZM2096.0 -2017.7710843373493Q2096.0 -1094.0803212851406 1961.0 -452.8775100401607Q1826.0 188.32530120481925 1566.0 188.32530120481925Q1306.0 188.32530120481925 1170.0 -448.3935742971888Q1034.0 -1085.1124497991968 1034.0 -2017.7710843373493Q1034.0 -2941.461847389558 1169.0 -3609.568273092369Q1304.0 -4277.67469879518 1566.0 -4277.67469879518Q1824.0 -4277.67469879518 1960.0 -3614.052208835341Q2096.0 -2950.4297188755017 2096.0 -2017.7710843373493ZM1732.0 -2017.7710843373493Q1732.0 -2878.6867469879517 1699.0 -3362.9518072289156Q1666.0 -3847.216867469879 1566.0 -3847.216867469879Q1468.0 -3847.216867469879 1433.0 -3380.887550200803Q1398.0 -2914.5582329317267 1398.0 -2017.7710843373493Q1398.0 -1165.8232931726907 1431.0 -703.9779116465863Q1464.0 -242.13253012048193 1566.0 -242.13253012048193Q1666.0 -242.13253012048193 1699.0 -703.9779116465863Q1732.0 -1165.8232931726907 1732.0 -2017.7710843373493ZM3326.0 -2017.7710843373493Q3326.0 -1094.0803212851406 3191.0 -452.8775100401607Q3056.0 188.32530120481925 2796.0 188.32530120481925Q2536.0 188.32530120481925 2400.0 -448.3935742971888Q2264.0 -1085.1124497991968 2264.0 -2017.7710843373493Q2264.0 -2941.461847389558 2399.0 -3609.568273092369Q2534.0 -4277.67469879518 2796.0 -4277.67469879518Q3054.0 -4277.67469879518 3190.0 -3614.052208835341Q3326.0 -2950.4297188755017 3326.0 -2017.7710843373493ZM2962.0 -2017.7710843373493Q2962.0 -2878.6867469879517 2929.0 -3362.9518072289156Q2896.0 -3847.216867469879 2796.0 -3847.216867469879Q2698.0 -3847.216867469879 2663.0 -3380.887550200803Q2628.0 -2914.5582329317267 2628.0 -2017.7710843373493Q2628.0 -1165.8232931726907 2661.0 -703.9779116465863Q2694.0 -242.13253012048193 2796.0 -242.13253012048193Q2896.0 -242.13253012048193 2929.0 -703.9779116465863Q2962.0 -1165.8232931726907 2962.0 -2017.7710843373493ZM4556.0 -2017.7710843373493Q4556.0 -1094.0803212851406 4421.0 -452.8775100401607Q4286.0 188.32530120481925 4026.0 188.32530120481925Q3766.0 188.32530120481925 3630.0 -448.3935742971888Q3494.0 -1085.1124497991968 3494.0 -2017.7710843373493Q3494.0 -2941.461847389558 3629.0 -3609.568273092369Q3764.0 -4277.67469879518 4026.0 -4277.67469879518Q4284.0 -4277.67469879518 4420.0 -3614.052208835341Q4556.0 -2950.4297188755017 4556.0 -2017.7710843373493ZM4192.0 -2017.7710843373493Q4192.0 -2878.6867469879517 4159.0 -3362.9518072289156Q4126.0 -3847.216867469879 4026.0 -3847.216867469879Q3928.0 -3847.216867469879 3893.0 -3380.887550200803Q3858.0 -2914.5582329317267 3858.0 -2017.7710843373493Q3858.0 -1165.8232931726907 3891.0 -703.9779116465863Q3924.0 -242.13253012048193 4026.0 -242.13253012048193Q4126.0 -242.13253012048193 4159.0 -703.9779116465863Q4192.0 -1165.8232931726907 4192.0 -2017.7710843373493Z" fill="#0a1722"/></svg>
