<svg xmlns="http://www.w3.org/2000/svg" viewBox="-1453.2 -2579.5 2902.3 2902.3" width="512" height="512" fill="none" role="img" aria-label="1000"><path d="M-86.0 -450.0Q-86.0 -244.0 -221.0 -101.0Q-356.0 42.0 -616.0 42.0Q-876.0 42.0 -1012.0 -100.0Q-1148.0 -242.0 -1148.0 -450.0Q-1148.0 -656.0 -1013.0 -805.0Q-878.0 -954.0 -616.0 -954.0Q-358.0 -954.0 -222.0 -806.0Q-86.0 -658.0 -86.0 -450.0ZM-450.0 -450.0Q-450.0 -642.0 -483.0 -750.0Q-516.0 -858.0 -616.0 -858.0Q-714.0 -858.0 -749.0 -754.0Q-784.0 -650.0 -784.0 -450.0Q-784.0 -260.0 -751.0 -157.0Q-718.0 -54.0 -616.0 -54.0Q-516.0 -54.0 -483.0 -157.0Q-450.0 -260.0 -450.0 -450.0ZM1144.0 -450.0Q1144.0 -244.0 1009.0 -101.0Q874.0 42.0 614.0 42.0Q354.0 42.0 218.0 -100.0Q82.0 -242.0 82.0 -450.0Q82.0 -656.0 217.0 -805.0Q352.0 -954.0 614.0 -954.0Q872.0 -954.0 1008.0 -806.0Q1144.0 -658.0 1144.0 -450.0ZM780.0 -450.0Q780.0 -642.0 747.0 -750.0Q714.0 -858.0 614.0 -858.0Q516.0 -858.0 481.0 -754.0Q446.0 -650.0 446.0 -450.0Q446.0 -260.0 479.0 -157.0Q512.0 -54.0 614.0 -54.0Q714.0 -54.0 747.0 -157.0Q780.0 -260.0 780.0 -450.0ZM-231.0 -1376.6Q-231.0 -1366.6 -236.0 -1349.6Q-241.0 -1332.6 -247.0 -1332.6Q-317.0 -1332.6 -428.0 -1338.6Q-539.0 -1344.6 -615.0 -1344.6Q-687.0 -1344.6 -805.0 -1338.6Q-923.0 -1332.6 -985.0 -1332.6Q-991.0 -1332.6 -996.0 -1349.6Q-1001.0 -1366.6 -1001.0 -1376.6Q-1001.0 -1388.6 -996.0 -1404.6Q-991.0 -1420.6 -985.0 -1420.6Q-893.0 -1432.6 -839.0 -1447.6Q-785.0 -1462.6 -785.0 -1582.6V-2018.6Q-785.0 -2132.6 -844.0 -2151.6Q-903.0 -2170.6 -985.0 -2180.6Q-991.0 -2180.6 -996.0 -2196.6Q-1001.0 -2212.6 -1001.0 -2224.6Q-1001.0 -2236.6 -996.0 -2252.6Q-991.0 -2268.6 -985.0 -2268.6Q-915.0 -2268.6 -803.0 -2262.6Q-691.0 -2256.6 -615.0 -2256.6Q-543.0 -2256.6 -426.0 -2262.6Q-309.0 -2268.6 -247.0 -2268.6Q-241.0 -2268.6 -236.0 -2253.6Q-231.0 -2238.6 -231.0 -2224.6Q-231.0 -2210.6 -236.0 -2195.6Q-241.0 -2180.6 -247.0 -2180.6Q-327.0 -2172.6 -386.0 -2147.6Q-445.0 -2122.6 -445.0 -2018.6V-1582.6Q-445.0 -1470.6 -387.0 -1449.6Q-329.0 -1428.6 -247.0 -1420.6Q-241.0 -1420.6 -236.0 -1405.6Q-231.0 -1390.6 -231.0 -1376.6ZM1005.0 -1794.6Q1005.0 -1588.6 870.0 -1445.6Q735.0 -1302.6 475.0 -1302.6Q215.0 -1302.6 79.0 -1444.6Q-57.0 -1586.6 -57.0 -1794.6Q-57.0 -2000.6 78.0 -2149.6Q213.0 -2298.6 475.0 -2298.6Q733.0 -2298.6 869.0 -2150.6Q1005.0 -2002.6 1005.0 -1794.6ZM641.0 -1794.6Q641.0 -1986.6 608.0 -2094.6Q575.0 -2202.6 475.0 -2202.6Q377.0 -2202.6 342.0 -2098.6Q307.0 -1994.6 307.0 -1794.6Q307.0 -1604.6 340.0 -1501.6Q373.0 -1398.6 475.0 -1398.6Q575.0 -1398.6 608.0 -1501.6Q641.0 -1604.6 641.0 -1794.6Z" fill="#0a1722"/></svg>
