<svg xmlns="http://www.w3.org/2000/svg" viewBox="-244.9 -3023.9 5135.9 5135.9" width="512" height="512" fill="none" role="img" aria-label="1000"><path d="M860 -32Q860 -22 855.0 -5.0Q850 12 844 12Q774 12 663.0 6.0Q552 0 476 0Q404 0 286.0 6.0Q168 12 106 12Q100 12 95.0 -5.0Q90 -22 90 -32Q90 -44 95.0 -60.0Q100 -76 106 -76Q198 -88 252.0 -103.0Q306 -118 306 -238V-674Q306 -788 247.0 -807.0Q188 -826 106 -836Q100 -836 95.0 -852.0Q90 -868 90 -880Q90 -892 95.0 -908.0Q100 -924 106 -924Q176 -924 288.0 -918.0Q400 -912 476 -912Q548 -912 665.0 -918.0Q782 -924 844 -924Q850 -924 855.0 -909.0Q860 -894 860 -880Q860 -866 855.0 -851.0Q850 -836 844 -836Q764 -828 705.0 -803.0Q646 -778 646 -674V-238Q646 -126 704.0 -105.0Q762 -84 844 -76Q850 -76 855.0 -61.0Q860 -46 860 -32ZM2096 -450Q2096 -244 1961.0 -101.0Q1826 42 1566 42Q1306 42 1170.0 -100.0Q1034 -242 1034 -450Q1034 -656 1169.0 -805.0Q1304 -954 1566 -954Q1824 -954 1960.0 -806.0Q2096 -658 2096 -450ZM1732 -450Q1732 -642 1699.0 -750.0Q1666 -858 1566 -858Q1468 -858 1433.0 -754.0Q1398 -650 1398 -450Q1398 -260 1431.0 -157.0Q1464 -54 1566 -54Q1666 -54 1699.0 -157.0Q1732 -260 1732 -450ZM3326 -450Q3326 -244 3191.0 -101.0Q3056 42 2796 42Q2536 42 2400.0 -100.0Q2264 -242 2264 -450Q2264 -656 2399.0 -805.0Q2534 -954 2796 -954Q3054 -954 3190.0 -806.0Q3326 -658 3326 -450ZM2962 -450Q2962 -642 2929.0 -750.0Q2896 -858 2796 -858Q2698 -858 2663.0 -754.0Q2628 -650 2628 -450Q2628 -260 2661.0 -157.0Q2694 -54 2796 -54Q2896 -54 2929.0 -157.0Q2962 -260 2962 -450ZM4556 -450Q4556 -244 4421.0 -101.0Q4286 42 4026 42Q3766 42 3630.0 -100.0Q3494 -242 3494 -450Q3494 -656 3629.0 -805.0Q3764 -954 4026 -954Q4284 -954 4420.0 -806.0Q4556 -658 4556 -450ZM4192 -450Q4192 -642 4159.0 -750.0Q4126 -858 4026 -858Q3928 -858 3893.0 -754.0Q3858 -650 3858 -450Q3858 -260 3891.0 -157.0Q3924 -54 4026 -54Q4126 -54 4159.0 -157.0Q4192 -260 4192 -450Z" fill="#0a1722"/></svg>
