<svg xmlns="http://www.w3.org/2000/svg" viewBox="-80.9 -1571.9 4591.8 1709.8" fill="none" role="img" aria-label="1000"><path d="M655.0 0Q649.0 0 633.0 -1Q453.0 -10 369.0 -10Q321.0 -10 255.5 -8.0Q190.0 -6 72.0 0V-43Q81.0 -42 94.0 -41.5Q107.0 -41 133.0 -41Q230.0 -41 261.0 -101.5Q292.0 -162 297.0 -369Q300.0 -510 301.5 -629.0Q303.0 -748 303.0 -942Q303.0 -1128 301.5 -1202.0Q300.0 -1276 297.0 -1331Q244.0 -1329 181.0 -1321.0Q118.0 -1313 45.0 -1300L37.0 -1352Q186.0 -1377 276.5 -1396.5Q367.0 -1416 471.0 -1444Q465.0 -1255 463.0 -1101.5Q461.0 -948 461.0 -778V-369Q461.0 -159 490.0 -100.0Q519.0 -41 614.0 -41Q635.0 -41 642.5 -41.5Q650.0 -42 655.0 -43ZM1669.0 -655Q1669.0 -1005 1589.5 -1193.5Q1510.0 -1382 1362.0 -1382Q1219.0 -1382 1147.0 -1230.0Q1075.0 -1078 1075.0 -778Q1075.0 -429 1154.0 -243.0Q1233.0 -57 1382.0 -57Q1525.0 -57 1597.0 -207.0Q1669.0 -357 1669.0 -655ZM1853.0 -737Q1853.0 -386 1718.5 -183.0Q1584.0 20 1362.0 20Q1152.0 20 1021.5 -176.5Q891.0 -373 891.0 -696Q891.0 -1044 1027.5 -1249.0Q1164.0 -1454 1382.0 -1454Q1592.0 -1454 1722.5 -1257.5Q1853.0 -1061 1853.0 -737ZM2939.0 -655Q2939.0 -1005 2859.5 -1193.5Q2780.0 -1382 2632.0 -1382Q2489.0 -1382 2417.0 -1230.0Q2345.0 -1078 2345.0 -778Q2345.0 -429 2424.0 -243.0Q2503.0 -57 2652.0 -57Q2795.0 -57 2867.0 -207.0Q2939.0 -357 2939.0 -655ZM3123.0 -737Q3123.0 -386 2988.5 -183.0Q2854.0 20 2632.0 20Q2422.0 20 2291.5 -176.5Q2161.0 -373 2161.0 -696Q2161.0 -1044 2297.5 -1249.0Q2434.0 -1454 2652.0 -1454Q2862.0 -1454 2992.5 -1257.5Q3123.0 -1061 3123.0 -737ZM4209.0 -655Q4209.0 -1005 4129.5 -1193.5Q4050.0 -1382 3902.0 -1382Q3759.0 -1382 3687.0 -1230.0Q3615.0 -1078 3615.0 -778Q3615.0 -429 3694.0 -243.0Q3773.0 -57 3922.0 -57Q4065.0 -57 4137.0 -207.0Q4209.0 -357 4209.0 -655ZM4393.0 -737Q4393.0 -386 4258.5 -183.0Q4124.0 20 3902.0 20Q3692.0 20 3561.5 -176.5Q3431.0 -373 3431.0 -696Q3431.0 -1044 3567.5 -1249.0Q3704.0 -1454 3922.0 -1454Q4132.0 -1454 4262.5 -1257.5Q4393.0 -1061 4393.0 -737Z" fill="#0a1722"/></svg>
