<svg xmlns="http://www.w3.org/2000/svg" viewBox="38.2 -740.8 2197.7 809.7" fill="none" role="img" aria-label="1000"><path d="M124.0 -542Q113.0 -562 94.0 -574V-581Q151.0 -604 210.5 -631.5Q270.0 -659 322.0 -685L329.0 -680Q325.0 -614 323.0 -549.5Q321.0 -485 321.0 -419V-252Q321.0 -186 323.0 -122.5Q325.0 -59 329.0 2Q317.0 0 305.5 0.0Q294.0 0 282.0 0Q270.0 0 258.5 0.0Q247.0 0 235.0 2Q240.0 -60 241.5 -123.0Q243.0 -186 243.0 -252V-608ZM600.0 -328Q600.0 -399 612.0 -461.5Q624.0 -524 651.5 -570.5Q679.0 -617 724.0 -644.5Q769.0 -672 834.0 -672Q906.0 -672 951.5 -644.5Q997.0 -617 1023.0 -570.5Q1049.0 -524 1058.5 -461.5Q1068.0 -399 1068.0 -328Q1068.0 -259 1054.0 -197.0Q1040.0 -135 1011.5 -88.0Q983.0 -41 939.0 -14.0Q895.0 13 834.0 13Q762.0 13 716.5 -13.0Q671.0 -39 645.0 -85.5Q619.0 -132 609.5 -194.5Q600.0 -257 600.0 -328ZM682.0 -328Q682.0 -262 689.5 -205.0Q697.0 -148 715.0 -106.0Q733.0 -64 762.0 -40.0Q791.0 -16 834.0 -16Q877.0 -16 906.0 -40.0Q935.0 -64 953.0 -106.0Q971.0 -148 978.5 -205.0Q986.0 -262 986.0 -328Q986.0 -394 978.5 -451.0Q971.0 -508 953.0 -550.0Q935.0 -592 906.0 -616.0Q877.0 -640 834.0 -640Q791.0 -640 762.0 -618.0Q733.0 -596 715.0 -555.0Q697.0 -514 689.5 -456.5Q682.0 -399 682.0 -328ZM1156.0 -328Q1156.0 -399 1168.0 -461.5Q1180.0 -524 1207.5 -570.5Q1235.0 -617 1280.0 -644.5Q1325.0 -672 1390.0 -672Q1462.0 -672 1507.5 -644.5Q1553.0 -617 1579.0 -570.5Q1605.0 -524 1614.5 -461.5Q1624.0 -399 1624.0 -328Q1624.0 -259 1610.0 -197.0Q1596.0 -135 1567.5 -88.0Q1539.0 -41 1495.0 -14.0Q1451.0 13 1390.0 13Q1318.0 13 1272.5 -13.0Q1227.0 -39 1201.0 -85.5Q1175.0 -132 1165.5 -194.5Q1156.0 -257 1156.0 -328ZM1238.0 -328Q1238.0 -262 1245.5 -205.0Q1253.0 -148 1271.0 -106.0Q1289.0 -64 1318.0 -40.0Q1347.0 -16 1390.0 -16Q1433.0 -16 1462.0 -40.0Q1491.0 -64 1509.0 -106.0Q1527.0 -148 1534.5 -205.0Q1542.0 -262 1542.0 -328Q1542.0 -394 1534.5 -451.0Q1527.0 -508 1509.0 -550.0Q1491.0 -592 1462.0 -616.0Q1433.0 -640 1390.0 -640Q1347.0 -640 1318.0 -618.0Q1289.0 -596 1271.0 -555.0Q1253.0 -514 1245.5 -456.5Q1238.0 -399 1238.0 -328ZM1712.0 -328Q1712.0 -399 1724.0 -461.5Q1736.0 -524 1763.5 -570.5Q1791.0 -617 1836.0 -644.5Q1881.0 -672 1946.0 -672Q2018.0 -672 2063.5 -644.5Q2109.0 -617 2135.0 -570.5Q2161.0 -524 2170.5 -461.5Q2180.0 -399 2180.0 -328Q2180.0 -259 2166.0 -197.0Q2152.0 -135 2123.5 -88.0Q2095.0 -41 2051.0 -14.0Q2007.0 13 1946.0 13Q1874.0 13 1828.5 -13.0Q1783.0 -39 1757.0 -85.5Q1731.0 -132 1721.5 -194.5Q1712.0 -257 1712.0 -328ZM1794.0 -328Q1794.0 -262 1801.5 -205.0Q1809.0 -148 1827.0 -106.0Q1845.0 -64 1874.0 -40.0Q1903.0 -16 1946.0 -16Q1989.0 -16 2018.0 -40.0Q2047.0 -64 2065.0 -106.0Q2083.0 -148 2090.5 -205.0Q2098.0 -262 2098.0 -328Q2098.0 -394 2090.5 -451.0Q2083.0 -508 2065.0 -550.0Q2047.0 -592 2018.0 -616.0Q1989.0 -640 1946.0 -640Q1903.0 -640 1874.0 -618.0Q1845.0 -596 1827.0 -555.0Q1809.0 -514 1801.5 -456.5Q1794.0 -399 1794.0 -328Z" fill="#0a1722"/></svg>
