<svg xmlns="http://www.w3.org/2000/svg" viewBox="8.3 -1543.7 4130.4 1692.4" fill="none" role="img" aria-label="1000"><path d="M153.0 -1139 135.0 -1144 125.0 -1226 135.0 -1236Q242.0 -1267 368.0 -1321Q554.0 -1400 607.0 -1427L633.0 -1417Q617.0 -959 617.0 -891V-520Q617.0 -298 622.0 -184Q625.0 -117 638.5 -99.5Q652.0 -82 678.5 -74.5Q705.0 -67 852.0 -61V0Q599.0 -8 535.0 -8Q487.0 -8 196.0 0V-61Q348.0 -70 371.5 -75.5Q395.0 -81 406.5 -92.0Q418.0 -103 423.0 -123Q431.0 -154 437.0 -301.5Q443.0 -449 443.0 -525V-919Q443.0 -1160 442.0 -1221Q442.0 -1248 435.0 -1255Q431.0 -1259 424.0 -1259Q415.0 -1259 378.0 -1243Q208.0 -1167 153.0 -1139ZM1086.0 -619Q1086.0 -904 1127.0 -1059.0Q1168.0 -1214 1276.0 -1315.0Q1384.0 -1416 1550.0 -1416Q1634.0 -1416 1705.5 -1387.5Q1777.0 -1359 1822.5 -1315.5Q1868.0 -1272 1899.5 -1208.5Q1931.0 -1145 1944.0 -1081Q1974.0 -935 1974.0 -763Q1974.0 -539 1939.0 -379Q1919.0 -288 1882.0 -212.5Q1845.0 -137 1794.0 -84.0Q1743.0 -31 1671.0 0.5Q1599.0 32 1509.0 32Q1400.0 32 1322.0 -14.0Q1244.0 -60 1198.0 -132Q1134.0 -235 1110.0 -367.5Q1086.0 -500 1086.0 -619ZM1258.0 -677Q1258.0 -533 1277.0 -394.5Q1296.0 -256 1337.0 -170Q1365.0 -112 1419.0 -75.0Q1473.0 -38 1540.0 -38Q1654.0 -38 1715.0 -133Q1803.0 -269 1803.0 -674Q1803.0 -848 1784.5 -986.5Q1766.0 -1125 1723.0 -1214Q1695.0 -1271 1644.5 -1307.5Q1594.0 -1344 1523.0 -1344Q1445.0 -1344 1383.5 -1294.0Q1322.0 -1244 1290.0 -1112.5Q1258.0 -981 1258.0 -677ZM2110.0 -619Q2110.0 -904 2151.0 -1059.0Q2192.0 -1214 2300.0 -1315.0Q2408.0 -1416 2574.0 -1416Q2658.0 -1416 2729.5 -1387.5Q2801.0 -1359 2846.5 -1315.5Q2892.0 -1272 2923.5 -1208.5Q2955.0 -1145 2968.0 -1081Q2998.0 -935 2998.0 -763Q2998.0 -539 2963.0 -379Q2943.0 -288 2906.0 -212.5Q2869.0 -137 2818.0 -84.0Q2767.0 -31 2695.0 0.5Q2623.0 32 2533.0 32Q2424.0 32 2346.0 -14.0Q2268.0 -60 2222.0 -132Q2158.0 -235 2134.0 -367.5Q2110.0 -500 2110.0 -619ZM2282.0 -677Q2282.0 -533 2301.0 -394.5Q2320.0 -256 2361.0 -170Q2389.0 -112 2443.0 -75.0Q2497.0 -38 2564.0 -38Q2678.0 -38 2739.0 -133Q2827.0 -269 2827.0 -674Q2827.0 -848 2808.5 -986.5Q2790.0 -1125 2747.0 -1214Q2719.0 -1271 2668.5 -1307.5Q2618.0 -1344 2547.0 -1344Q2469.0 -1344 2407.5 -1294.0Q2346.0 -1244 2314.0 -1112.5Q2282.0 -981 2282.0 -677ZM3134.0 -619Q3134.0 -904 3175.0 -1059.0Q3216.0 -1214 3324.0 -1315.0Q3432.0 -1416 3598.0 -1416Q3682.0 -1416 3753.5 -1387.5Q3825.0 -1359 3870.5 -1315.5Q3916.0 -1272 3947.5 -1208.5Q3979.0 -1145 3992.0 -1081Q4022.0 -935 4022.0 -763Q4022.0 -539 3987.0 -379Q3967.0 -288 3930.0 -212.5Q3893.0 -137 3842.0 -84.0Q3791.0 -31 3719.0 0.5Q3647.0 32 3557.0 32Q3448.0 32 3370.0 -14.0Q3292.0 -60 3246.0 -132Q3182.0 -235 3158.0 -367.5Q3134.0 -500 3134.0 -619ZM3306.0 -677Q3306.0 -533 3325.0 -394.5Q3344.0 -256 3385.0 -170Q3413.0 -112 3467.0 -75.0Q3521.0 -38 3588.0 -38Q3702.0 -38 3763.0 -133Q3851.0 -269 3851.0 -674Q3851.0 -848 3832.5 -986.5Q3814.0 -1125 3771.0 -1214Q3743.0 -1271 3692.5 -1307.5Q3642.0 -1344 3571.0 -1344Q3493.0 -1344 3431.5 -1294.0Q3370.0 -1244 3338.0 -1112.5Q3306.0 -981 3306.0 -677Z" fill="#0a1722"/></svg>
