<svg xmlns="http://www.w3.org/2000/svg" viewBox="-1.2 -742.2 2746.3 814.3" fill="none" role="img" aria-label="1000"><path d="M388.0 -124Q388.0 -81 494.0 -81V0H68.0V-81Q192.0 -81 192.0 -124V-490H59.0L55.0 -567Q195.0 -570 248.0 -686L394.0 -675Q391.0 -648 389.5 -629.0Q388.0 -610 388.0 -593ZM914.0 -682Q991.0 -682 1049.5 -665.0Q1108.0 -648 1147.0 -607.0Q1186.0 -566 1205.5 -497.5Q1225.0 -429 1225.0 -326Q1225.0 -225 1205.5 -159.0Q1186.0 -93 1147.0 -54.0Q1108.0 -15 1049.5 0.5Q991.0 16 914.0 16Q836.0 16 778.0 0.5Q720.0 -15 681.0 -54.0Q642.0 -93 622.5 -159.0Q603.0 -225 603.0 -326Q603.0 -429 622.5 -497.5Q642.0 -566 681.0 -607.0Q720.0 -648 778.5 -665.0Q837.0 -682 914.0 -682ZM914.0 -590Q880.0 -590 858.0 -573.5Q836.0 -557 823.0 -524.0Q810.0 -491 805.0 -442.0Q800.0 -393 800.0 -327Q800.0 -249 805.0 -200.5Q810.0 -152 822.5 -125.0Q835.0 -98 857.0 -88.0Q879.0 -78 914.0 -78Q948.0 -78 970.0 -88.0Q992.0 -98 1005.0 -125.0Q1018.0 -152 1023.0 -200.5Q1028.0 -249 1028.0 -327Q1028.0 -393 1023.0 -442.0Q1018.0 -491 1005.0 -524.0Q992.0 -557 970.0 -573.5Q948.0 -590 914.0 -590ZM1646.0 -682Q1723.0 -682 1781.5 -665.0Q1840.0 -648 1879.0 -607.0Q1918.0 -566 1937.5 -497.5Q1957.0 -429 1957.0 -326Q1957.0 -225 1937.5 -159.0Q1918.0 -93 1879.0 -54.0Q1840.0 -15 1781.5 0.5Q1723.0 16 1646.0 16Q1568.0 16 1510.0 0.5Q1452.0 -15 1413.0 -54.0Q1374.0 -93 1354.5 -159.0Q1335.0 -225 1335.0 -326Q1335.0 -429 1354.5 -497.5Q1374.0 -566 1413.0 -607.0Q1452.0 -648 1510.5 -665.0Q1569.0 -682 1646.0 -682ZM1646.0 -590Q1612.0 -590 1590.0 -573.5Q1568.0 -557 1555.0 -524.0Q1542.0 -491 1537.0 -442.0Q1532.0 -393 1532.0 -327Q1532.0 -249 1537.0 -200.5Q1542.0 -152 1554.5 -125.0Q1567.0 -98 1589.0 -88.0Q1611.0 -78 1646.0 -78Q1680.0 -78 1702.0 -88.0Q1724.0 -98 1737.0 -125.0Q1750.0 -152 1755.0 -200.5Q1760.0 -249 1760.0 -327Q1760.0 -393 1755.0 -442.0Q1750.0 -491 1737.0 -524.0Q1724.0 -557 1702.0 -573.5Q1680.0 -590 1646.0 -590ZM2378.0 -682Q2455.0 -682 2513.5 -665.0Q2572.0 -648 2611.0 -607.0Q2650.0 -566 2669.5 -497.5Q2689.0 -429 2689.0 -326Q2689.0 -225 2669.5 -159.0Q2650.0 -93 2611.0 -54.0Q2572.0 -15 2513.5 0.5Q2455.0 16 2378.0 16Q2300.0 16 2242.0 0.5Q2184.0 -15 2145.0 -54.0Q2106.0 -93 2086.5 -159.0Q2067.0 -225 2067.0 -326Q2067.0 -429 2086.5 -497.5Q2106.0 -566 2145.0 -607.0Q2184.0 -648 2242.5 -665.0Q2301.0 -682 2378.0 -682ZM2378.0 -590Q2344.0 -590 2322.0 -573.5Q2300.0 -557 2287.0 -524.0Q2274.0 -491 2269.0 -442.0Q2264.0 -393 2264.0 -327Q2264.0 -249 2269.0 -200.5Q2274.0 -152 2286.5 -125.0Q2299.0 -98 2321.0 -88.0Q2343.0 -78 2378.0 -78Q2412.0 -78 2434.0 -88.0Q2456.0 -98 2469.0 -125.0Q2482.0 -152 2487.0 -200.5Q2492.0 -249 2492.0 -327Q2492.0 -393 2487.0 -442.0Q2482.0 -491 2469.0 -524.0Q2456.0 -557 2434.0 -573.5Q2412.0 -590 2378.0 -590Z" fill="#0a1722"/></svg>
