<svg xmlns="http://www.w3.org/2000/svg" viewBox="-821.6 -2138.7 3002.5 3002.5" width="512" height="512" fill="none" role="img" aria-label="1000"><path d="M385.0 -850.8800000000001Q385.0 -840.8800000000001 380.0 -823.8800000000001Q375.0 -806.8800000000001 369.0 -806.8800000000001Q299.0 -806.8800000000001 188.0 -812.8800000000001Q77.0 -818.8800000000001 1.0 -818.8800000000001Q-71.0 -818.8800000000001 -189.0 -812.8800000000001Q-307.0 -806.8800000000001 -369.0 -806.8800000000001Q-375.0 -806.8800000000001 -380.0 -823.8800000000001Q-385.0 -840.8800000000001 -385.0 -850.8800000000001Q-385.0 -862.8800000000001 -380.0 -878.8800000000001Q-375.0 -894.8800000000001 -369.0 -894.8800000000001Q-277.0 -906.8800000000001 -223.0 -921.8800000000001Q-169.0 -936.8800000000001 -169.0 -1056.88V-1492.88Q-169.0 -1606.88 -228.0 -1625.88Q-287.0 -1644.88 -369.0 -1654.88Q-375.0 -1654.88 -380.0 -1670.88Q-385.0 -1686.88 -385.0 -1698.88Q-385.0 -1710.88 -380.0 -1726.88Q-375.0 -1742.88 -369.0 -1742.88Q-299.0 -1742.88 -187.0 -1736.88Q-75.0 -1730.88 1.0 -1730.88Q73.0 -1730.88 190.0 -1736.88Q307.0 -1742.88 369.0 -1742.88Q375.0 -1742.88 380.0 -1727.88Q385.0 -1712.88 385.0 -1698.88Q385.0 -1684.88 380.0 -1669.88Q375.0 -1654.88 369.0 -1654.88Q289.0 -1646.88 230.0 -1621.88Q171.0 -1596.88 171.0 -1492.88V-1056.88Q171.0 -944.8800000000001 229.0 -923.8800000000001Q287.0 -902.8800000000001 369.0 -894.8800000000001Q375.0 -894.8800000000001 380.0 -879.8800000000001Q385.0 -864.8800000000001 385.0 -850.8800000000001ZM1890.3600000000001 -1268.88Q1890.3600000000001 -1062.88 1755.3600000000001 -919.8800000000001Q1620.3600000000001 -776.8800000000001 1360.3600000000001 -776.8800000000001Q1100.3600000000001 -776.8800000000001 964.3600000000001 -918.8800000000001Q828.3600000000001 -1060.88 828.3600000000001 -1268.88Q828.3600000000001 -1474.88 963.3600000000001 -1623.88Q1098.3600000000001 -1772.88 1360.3600000000001 -1772.88Q1618.3600000000001 -1772.88 1754.3600000000001 -1624.88Q1890.3600000000001 -1476.88 1890.3600000000001 -1268.88ZM1526.3600000000001 -1268.88Q1526.3600000000001 -1460.88 1493.3600000000001 -1568.88Q1460.3600000000001 -1676.88 1360.3600000000001 -1676.88Q1262.3600000000001 -1676.88 1227.3600000000001 -1572.88Q1192.3600000000001 -1468.88 1192.3600000000001 -1268.88Q1192.3600000000001 -1078.88 1225.3600000000001 -975.8800000000001Q1258.3600000000001 -872.8800000000001 1360.3600000000001 -872.8800000000001Q1460.3600000000001 -872.8800000000001 1493.3600000000001 -975.8800000000001Q1526.3600000000001 -1078.88 1526.3600000000001 -1268.88ZM531.0 6.0Q531.0 212.0 396.0 355.0Q261.0 498.0 1.0 498.0Q-259.0 498.0 -395.0 356.0Q-531.0 214.0 -531.0 6.0Q-531.0 -200.0 -396.0 -349.0Q-261.0 -498.0 1.0 -498.0Q259.0 -498.0 395.0 -350.0Q531.0 -202.0 531.0 6.0ZM167.0 6.0Q167.0 -186.0 134.0 -294.0Q101.0 -402.0 1.0 -402.0Q-97.0 -402.0 -132.0 -298.0Q-167.0 -194.0 -167.0 6.0Q-167.0 196.0 -134.0 299.0Q-101.0 402.0 1.0 402.0Q101.0 402.0 134.0 299.0Q167.0 196.0 167.0 6.0ZM1890.3600000000001 6.0Q1890.3600000000001 212.0 1755.3600000000001 355.0Q1620.3600000000001 498.0 1360.3600000000001 498.0Q1100.3600000000001 498.0 964.3600000000001 356.0Q828.3600000000001 214.0 828.3600000000001 6.0Q828.3600000000001 -200.0 963.3600000000001 -349.0Q1098.3600000000001 -498.0 1360.3600000000001 -498.0Q1618.3600000000001 -498.0 1754.3600000000001 -350.0Q1890.3600000000001 -202.0 1890.3600000000001 6.0ZM1526.3600000000001 6.0Q1526.3600000000001 -186.0 1493.3600000000001 -294.0Q1460.3600000000001 -402.0 1360.3600000000001 -402.0Q1262.3600000000001 -402.0 1227.3600000000001 -298.0Q1192.3600000000001 -194.0 1192.3600000000001 6.0Q1192.3600000000001 196.0 1225.3600000000001 299.0Q1258.3600000000001 402.0 1360.3600000000001 402.0Q1460.3600000000001 402.0 1493.3600000000001 299.0Q1526.3600000000001 196.0 1526.3600000000001 6.0Z" fill="#0a1722"/></svg>
